<svg width="29" height="29" viewBox="0 0 29 29" fill="none" xmlns="http://www.w3.org/2000/svg">
<mask id="mask0_1203_1628" style="mask-type:luminance" maskUnits="userSpaceOnUse" x="0" y="0" width="29" height="29">
<path d="M0 0H29V29H0V0Z" fill="white"/>
</mask>
<g mask="url(#mask0_1203_1628)">
<path d="M28.961 24.6918L26.782 8.99804C26.5977 7.66945 25.3369 6.6675 23.8494 6.6675H20.932V5.78631C20.932 2.5958 18.0486 0 14.5046 0C10.9606 0 8.07723 2.5958 8.07723 5.78631V6.6675H5.15956C3.67232 6.6675 2.41173 7.6693 2.22697 8.99804L0.0480015 24.6918C-0.103351 25.7816 0.272699 26.8788 1.08034 27.7024C1.88772 28.526 3.05097 28.9983 4.27112 28.9983H24.7378C25.9583 28.9983 27.1212 28.526 27.9286 27.7024C28.7362 26.8791 29.1123 25.7816 28.9609 24.6918H28.961ZM26.0667 26.9039C25.6644 27.1545 25.1796 27.2755 24.6904 27.2755H4.2712C3.59957 27.2755 2.95974 27.0156 2.51509 26.5624C2.0707 26.1091 1.86372 25.5053 1.94699 24.9055L4.12587 9.21192C4.19108 8.74354 4.63547 8.39035 5.15965 8.39035H6.82351C7.516 8.39035 8.07732 8.89575 8.07732 9.51916V13.6422H9.99106V9.51916C9.99106 8.89575 10.5525 8.39035 11.245 8.39035H17.0654V6.6675H9.99106V5.85829C9.99106 3.58462 12.0579 1.6846 14.5831 1.72353C17.0358 1.76139 19.0182 3.56935 19.0182 5.78631V13.6422H20.932V8.3905H23.8494C24.3738 8.3905 24.818 8.74362 24.8832 9.21169L27.0622 24.9055C27.1686 25.6731 26.7998 26.4472 26.0667 26.9039Z" fill="#AC040D"/>
</g>
</svg>
