<svg width="29" height="29" viewBox="0 0 29 29" fill="none" xmlns="http://www.w3.org/2000/svg">
<g clip-path="url(#clip0_1188_871)">
<path d="M24.7531 4.24691C22.0142 1.50838 18.3731 0 14.5 0C10.6269 0 6.98575 1.50838 4.24691 4.24691C1.50838 6.98575 0 10.6269 0 14.5C0 18.3731 1.50838 22.0142 4.24691 24.7531C6.98575 27.4916 10.6269 29 14.5 29C18.3731 29 22.0142 27.4916 24.7531 24.7531C27.492 22.0145 29 18.3731 29 14.5C29 10.6269 27.4916 6.98575 24.7531 4.24691ZM23.1735 24.065V23.7807C23.1735 21.2613 21.131 19.2191 18.6116 19.2191H10.7045C8.18517 19.2191 6.14264 21.2617 6.14264 23.7807V24.3421C3.35433 21.9705 1.58178 18.4386 1.58178 14.5C1.58178 7.37672 7.37672 1.58178 14.5 1.58178C21.6233 1.58178 27.4182 7.37672 27.4182 14.5C27.4182 18.2879 25.7792 21.7002 23.1735 24.065Z" fill="#AC040D"/>
<path d="M19.746 12.7335C19.746 12.8198 19.7438 12.9061 19.7396 12.9922C19.7354 13.0784 19.729 13.1644 19.7206 13.2503C19.7121 13.3362 19.7016 13.4218 19.6889 13.5072C19.6763 13.5926 19.6615 13.6775 19.6447 13.7622C19.6278 13.8468 19.6089 13.931 19.588 14.0147C19.567 14.0984 19.5439 14.1816 19.5189 14.2641C19.4939 14.3466 19.4668 14.4286 19.4378 14.5098C19.4087 14.5911 19.3776 14.6715 19.3446 14.7513C19.3116 14.831 19.2766 14.9099 19.2397 14.9879C19.2028 15.0659 19.1641 15.1429 19.1234 15.2191C19.0827 15.2951 19.0402 15.3702 18.9958 15.4442C18.9515 15.5182 18.9053 15.5911 18.8574 15.6628C18.8094 15.7346 18.7597 15.8051 18.7084 15.8744C18.6569 15.9438 18.6039 16.0117 18.5491 16.0785C18.4944 16.1452 18.438 16.2105 18.3801 16.2744C18.3222 16.3384 18.2627 16.4008 18.2016 16.4618C18.1406 16.5228 18.0782 16.5824 18.0142 16.6403C17.9503 16.6982 17.885 16.7545 17.8183 16.8093C17.7515 16.8641 17.6836 16.9171 17.6142 16.9686C17.5449 17.0199 17.4744 17.0696 17.4026 17.1176C17.3309 17.1655 17.258 17.2117 17.184 17.256C17.11 17.3003 17.0349 17.3429 16.9589 17.3836C16.8827 17.4243 16.8057 17.463 16.7277 17.4999C16.6497 17.5368 16.5708 17.5718 16.4911 17.6048C16.4113 17.6378 16.3309 17.6689 16.2496 17.698C16.1684 17.727 16.0864 17.7541 16.0039 17.7791C15.9214 17.8041 15.8382 17.8272 15.7545 17.8482C15.6708 17.8691 15.5866 17.888 15.502 17.9049C15.4173 17.9216 15.3324 17.9364 15.247 17.9491C15.1616 17.9617 15.0761 17.9723 14.9901 17.9808C14.9042 17.9892 14.8182 17.9956 14.7321 17.9998C14.6459 18.004 14.5596 18.0062 14.4733 18.0062C14.3871 18.0062 14.3008 18.004 14.2146 17.9998C14.1284 17.9956 14.0424 17.9892 13.9565 17.9808C13.8707 17.9723 13.785 17.9617 13.6997 17.9491C13.6143 17.9364 13.5293 17.9216 13.4447 17.9049C13.3601 17.888 13.2759 17.8691 13.1922 17.8482C13.1085 17.8272 13.0254 17.8041 12.9427 17.7791C12.8602 17.7541 12.7783 17.727 12.6971 17.698C12.6158 17.6689 12.5353 17.6378 12.4556 17.6048C12.3759 17.5718 12.297 17.5368 12.219 17.4999C12.141 17.463 12.0639 17.4243 11.9879 17.3836C11.9117 17.3429 11.8367 17.3003 11.7627 17.256C11.6886 17.2117 11.6158 17.1655 11.544 17.1176C11.4723 17.0696 11.4017 17.0199 11.3324 16.9686C11.2632 16.9171 11.1951 16.8641 11.1284 16.8093C11.0617 16.7545 10.9964 16.6982 10.9325 16.6403C10.8685 16.5824 10.806 16.5228 10.745 16.4618C10.684 16.4008 10.6246 16.3384 10.5666 16.2744C10.5086 16.2105 10.4523 16.1452 10.3975 16.0785C10.3428 16.0117 10.2897 15.9438 10.2383 15.8744C10.1869 15.8051 10.1372 15.7346 10.0893 15.6628C10.0414 15.5911 9.99524 15.5182 9.95083 15.4442C9.9065 15.3702 9.86398 15.2951 9.82328 15.2191C9.78265 15.1429 9.74383 15.0659 9.7069 14.9879C9.67005 14.9099 9.63508 14.831 9.60208 14.7513C9.56907 14.6715 9.53796 14.5911 9.50888 14.5098C9.47988 14.4286 9.45277 14.3466 9.42777 14.2641C9.4027 14.1816 9.37967 14.0984 9.35875 14.0147C9.33775 13.931 9.31887 13.8468 9.30203 13.7622C9.28519 13.6775 9.27046 13.5926 9.25778 13.5072C9.24509 13.4218 9.23452 13.3362 9.22606 13.2503C9.2176 13.1644 9.21126 13.0784 9.20703 12.9922C9.2028 12.9061 9.20068 12.8198 9.20068 12.7335C9.20068 12.6473 9.2028 12.561 9.20703 12.4748C9.21126 12.3886 9.2176 12.3026 9.22606 12.2167C9.23452 12.1309 9.24509 12.0452 9.25778 11.9599C9.27046 11.8745 9.28519 11.7895 9.30203 11.7049C9.31887 11.6203 9.33775 11.5361 9.35875 11.4524C9.37967 11.3687 9.4027 11.2856 9.42777 11.2029C9.45277 11.1204 9.47988 11.0384 9.50888 10.9573C9.53796 10.876 9.56907 10.7955 9.60208 10.7157C9.63508 10.6361 9.67005 10.5572 9.7069 10.4792C9.74383 10.4012 9.78265 10.3241 9.82328 10.248C9.86398 10.1719 9.9065 10.0969 9.95083 10.0228C9.99524 9.94883 10.0414 9.87596 10.0893 9.80421C10.1372 9.73247 10.1869 9.66193 10.2383 9.5926C10.2897 9.52335 10.3428 9.45531 10.3975 9.38862C10.4523 9.32194 10.5086 9.25661 10.5666 9.19264C10.6246 9.12868 10.684 9.06622 10.745 9.0052C10.806 8.94418 10.8685 8.88475 10.9325 8.82675C10.9964 8.76882 11.0617 8.71248 11.1284 8.65773C11.1951 8.60298 11.2632 8.54989 11.3324 8.49853C11.4017 8.4471 11.4723 8.39741 11.544 8.34953C11.6158 8.30157 11.6886 8.25543 11.7627 8.21102C11.8367 8.16669 11.9117 8.12418 11.9879 8.08347C12.0639 8.04284 12.141 8.00402 12.219 7.96709C12.297 7.93024 12.3759 7.89527 12.4556 7.86227C12.5353 7.82927 12.6158 7.79815 12.6971 7.76908C12.7783 7.74008 12.8602 7.71297 12.9427 7.68797C13.0254 7.66289 13.1085 7.63986 13.1922 7.61894C13.2759 7.59795 13.3601 7.57907 13.4447 7.56223C13.5293 7.54538 13.6143 7.53066 13.6997 7.51797C13.785 7.50528 13.8707 7.49471 13.9565 7.48625C14.0424 7.47779 14.1284 7.47145 14.2146 7.46722C14.3008 7.46299 14.3871 7.46088 14.4733 7.46088C14.5596 7.46088 14.6459 7.46299 14.7321 7.46722C14.8182 7.47145 14.9042 7.47779 14.9901 7.48625C15.0761 7.49471 15.1616 7.50528 15.247 7.51797C15.3324 7.53066 15.4173 7.54538 15.502 7.56223C15.5866 7.57907 15.6708 7.59795 15.7545 7.61894C15.8382 7.63986 15.9214 7.66289 16.0039 7.68797C16.0864 7.71297 16.1684 7.74008 16.2496 7.76908C16.3309 7.79815 16.4113 7.82927 16.4911 7.86227C16.5708 7.89527 16.6497 7.93024 16.7277 7.96709C16.8057 8.00402 16.8827 8.04284 16.9589 8.08347C17.0349 8.12418 17.11 8.16669 17.184 8.21102C17.258 8.25543 17.3309 8.30157 17.4026 8.34953C17.4744 8.39741 17.5449 8.4471 17.6142 8.49853C17.6836 8.54989 17.7515 8.60298 17.8183 8.65773C17.885 8.71248 17.9503 8.76882 18.0142 8.82675C18.0782 8.88475 18.1406 8.94418 18.2016 9.0052C18.2627 9.06622 18.3222 9.12868 18.3801 9.19264C18.438 9.25661 18.4944 9.32194 18.5491 9.38862C18.6039 9.45531 18.6569 9.52335 18.7084 9.5926C18.7597 9.66193 18.8094 9.73247 18.8574 9.80421C18.9053 9.87596 18.9515 9.94883 18.9958 10.0228C19.0401 10.0969 19.0827 10.1719 19.1234 10.248C19.1641 10.3241 19.2028 10.4012 19.2397 10.4792C19.2766 10.5572 19.3116 10.6361 19.3446 10.7157C19.3776 10.7955 19.4087 10.876 19.4378 10.9573C19.4668 11.0384 19.4939 11.1204 19.5189 11.2029C19.5439 11.2856 19.567 11.3687 19.588 11.4524C19.6089 11.5361 19.6278 11.6203 19.6447 11.7049C19.6615 11.7895 19.6763 11.8745 19.6889 11.9599C19.7016 12.0452 19.7121 12.1309 19.7206 12.2167C19.729 12.3026 19.7354 12.3886 19.7396 12.4748C19.7438 12.561 19.746 12.6473 19.746 12.7335Z" fill="#AC040D"/>
</g>
<defs>
<clipPath id="clip0_1188_871">
<rect width="29" height="29" fill="white"/>
</clipPath>
</defs>
</svg>
