<svg width="227" height="227" viewBox="0 0 227 227" fill="none" xmlns="http://www.w3.org/2000/svg">
<mask id="mask0_245_132" style="mask-type:luminance" maskUnits="userSpaceOnUse" x="12" y="91" width="203" height="49">
<path d="M214.439 91.2539H12.2581V139.832H214.439V91.2539Z" fill="white"/>
</mask>
<g mask="url(#mask0_245_132)">
<path d="M23.2884 112.918C22.9006 112.918 22.5607 112.773 22.2693 112.481C21.979 112.189 21.8342 111.849 21.8342 111.462C21.8342 111.074 21.9796 110.735 22.2716 110.445C24.0811 108.634 25.3491 106.767 26.0762 104.843C26.8045 102.918 27.1687 101.084 27.1687 99.3384C27.1687 98.0131 26.918 97.0348 26.4167 96.404C25.9154 95.7738 25.5194 95.4582 25.2297 95.4582C24.7438 95.4582 24.3075 95.6521 23.9197 96.0399C23.5319 96.4276 23.0951 97.2198 22.6098 98.4163C22.0925 99.7091 21.6722 101.568 21.3494 103.994C21.0261 106.419 20.8647 109.07 20.8647 111.946C20.8647 114.954 20.9616 117.913 21.1555 120.823C22.287 120.467 23.4267 120.192 24.5747 119.998C25.7221 119.804 26.7484 119.707 27.6534 119.707C28.0424 119.707 28.3823 119.853 28.6725 120.144C28.964 120.435 29.11 120.775 29.11 121.164C29.11 121.551 28.964 121.891 28.6725 122.183C28.3823 122.473 28.0424 122.618 27.6534 122.618C26.8459 122.618 25.8764 122.747 24.745 123.006C23.6129 123.264 22.4968 123.571 21.3967 123.928C21.5918 126.125 21.8188 128.162 22.0777 130.038C22.3361 131.914 22.6027 133.505 22.877 134.814C23.1512 136.124 23.4019 137.022 23.6289 137.508C23.7264 137.701 23.7755 137.911 23.7755 138.137C23.7755 138.492 23.6454 138.825 23.3853 139.132C23.1264 139.439 22.7711 139.593 22.3189 139.593C21.7372 139.593 21.3004 139.318 21.0089 138.768C20.4917 137.7 20.0146 135.938 19.5784 133.481C19.1415 131.024 18.7939 128.228 18.5356 125.091C18.2122 125.253 17.9214 125.415 17.663 125.576C17.4041 125.738 17.1949 125.9 17.0341 126.061C16.742 126.352 16.4027 126.498 16.0149 126.498C15.6271 126.498 15.2872 126.352 14.9958 126.061C14.7038 125.77 14.5583 125.43 14.5583 125.041C14.5583 124.654 14.7038 124.314 14.9958 124.025C15.3836 123.637 15.8601 123.273 16.4264 122.935C16.9921 122.594 17.6146 122.262 18.2944 121.939C18.1963 120.322 18.1153 118.673 18.0508 116.992C17.9858 115.311 17.9539 113.629 17.9539 111.946C17.9539 108.972 18.1153 106.2 18.4386 103.63C18.7614 101.059 19.2473 98.966 19.8952 97.3498C20.3788 96.1202 21.0255 95.013 21.8342 94.0276C22.6429 93.041 23.7743 92.5474 25.2297 92.5474C26.3281 92.5474 27.2331 92.895 27.9443 93.5901C28.6566 94.2853 29.1904 95.1508 29.5451 96.1865C29.9009 97.221 30.0795 98.2714 30.0795 99.3384C30.0795 101.471 29.6349 103.677 28.7458 105.957C27.8568 108.236 26.3771 110.411 24.3075 112.481C24.0173 112.773 23.6774 112.918 23.2884 112.918Z" fill="#AC040D"/>
<path d="M62.0898 112.918C61.702 112.918 61.3621 112.773 61.0707 112.481C60.7786 112.189 60.6332 111.849 60.6332 111.462C60.6332 111.074 60.7786 110.735 61.0707 110.445C62.8819 108.634 64.1505 106.767 64.8776 104.843C65.6059 102.918 65.9701 101.084 65.9701 99.3384C65.9701 98.0131 65.7194 97.0348 65.2181 96.404C64.7168 95.7738 64.3202 95.4582 64.0288 95.4582C63.5428 95.4582 63.1066 95.6521 62.7188 96.0399C62.331 96.4276 61.8941 97.2198 61.4088 98.4163C60.8915 99.7091 60.4712 101.568 60.1485 103.994C59.8251 106.419 59.6637 109.07 59.6637 111.946C59.6637 114.372 60.0432 116.353 60.8035 117.889C61.5631 119.424 62.7998 120.192 64.5135 120.192C65.4842 120.192 66.4058 119.982 67.2777 119.563C68.1508 119.142 69.1534 118.366 70.2854 117.234C70.5769 116.944 70.9168 116.799 71.3046 116.799C71.6924 116.799 72.0311 116.945 72.3213 117.236C72.6128 117.526 72.7588 117.865 72.7588 118.253C72.7588 118.641 72.6128 118.98 72.3213 119.272C71.0285 120.565 69.7676 121.527 68.538 122.157C67.3096 122.787 65.9683 123.103 64.5135 123.103C62.9623 123.103 61.6766 122.755 60.6569 122.06C59.6383 121.365 58.8462 120.46 58.2805 119.345C57.7159 118.229 57.3204 117.016 57.0934 115.706C56.8664 114.396 56.7529 113.143 56.7529 111.946C56.7529 108.972 56.9143 106.2 57.2377 103.63C57.5622 101.059 58.0475 98.966 58.6943 97.3498C59.1796 96.1202 59.8257 95.013 60.6332 94.0276C61.4419 93.041 62.5734 92.5474 64.0288 92.5474C65.1271 92.5474 66.0321 92.895 66.7433 93.5901C67.4556 94.2853 67.9894 95.1508 68.3441 96.1865C68.7 97.221 68.8785 98.2714 68.8785 99.3384C68.8785 101.471 68.434 103.677 67.5449 105.957C66.6558 108.236 65.1762 110.411 63.1066 112.481C62.8163 112.773 62.4776 112.918 62.0898 112.918Z" fill="#AC040D"/>
<path d="M107.193 123.103C105.642 123.103 104.283 122.74 103.119 122.012C101.956 121.284 101.05 120.29 100.402 119.028C99.7553 117.767 99.4325 116.377 99.4325 114.857C99.4325 113.5 99.7399 112.231 100.355 111.05C100.969 109.87 101.826 108.916 102.925 108.189C104.025 107.461 105.286 107.097 106.708 107.097C108.067 107.097 109.215 107.566 110.151 108.504C111.089 109.442 111.558 110.589 111.558 111.946C111.558 113.143 111.251 114.275 110.636 115.342C110.022 116.41 109.23 117.332 108.259 118.109C107.29 118.884 106.256 119.449 105.157 119.804C105.77 120.063 106.449 120.192 107.193 120.192C108.099 120.192 108.908 120.12 109.619 119.974C110.33 119.829 111.251 119.466 112.383 118.884C112.577 118.787 112.788 118.738 113.015 118.738C113.369 118.738 113.7 118.867 114.008 119.125C114.315 119.384 114.469 119.74 114.469 120.192C114.469 120.775 114.193 121.212 113.644 121.502C112.351 122.117 111.211 122.537 110.224 122.764C109.239 122.99 108.229 123.103 107.193 123.103ZM108.65 111.946C108.65 111.365 108.471 110.897 108.115 110.542C107.759 110.186 107.29 110.007 106.708 110.007C105.48 110.007 104.445 110.477 103.604 111.414C102.763 112.353 102.343 113.5 102.343 114.857C102.343 115.795 102.489 116.604 102.781 117.283C103.685 117.283 104.583 117.008 105.472 116.458C106.361 115.908 107.113 115.221 107.727 114.396C108.342 113.572 108.65 112.755 108.65 111.946Z" fill="#AC040D"/>
<path d="M163.017 118.737C163.405 118.737 163.736 118.891 164.01 119.199C164.285 119.506 164.424 119.837 164.424 120.192C164.424 120.515 164.31 120.822 164.083 121.114C164.051 121.147 163.873 121.333 163.549 121.672C163.226 122.011 162.773 122.334 162.192 122.641C161.61 122.949 160.899 123.103 160.059 123.103C159.056 123.103 158.215 122.836 157.536 122.303C156.856 121.769 156.323 121.099 155.935 120.291C155.547 119.482 155.24 118.706 155.015 117.962C154.594 118.803 154.06 119.619 153.414 120.412C152.768 121.203 151.999 121.849 151.109 122.351C150.22 122.852 149.161 123.103 147.933 123.103C146.51 123.103 145.288 122.771 144.27 122.109C143.252 121.446 142.476 120.565 141.941 119.466C141.408 118.366 141.142 117.153 141.142 115.827C141.142 114.276 141.231 113.104 141.409 112.313C141.587 111.52 141.693 111.075 141.726 110.977C141.984 110.331 142.437 110.007 143.083 110.007C143.536 110.007 143.891 110.161 144.15 110.469C144.408 110.776 144.538 111.107 144.538 111.462C144.538 111.721 144.497 111.988 144.417 112.263C144.337 112.538 144.255 112.934 144.173 113.45C144.093 113.968 144.053 114.76 144.053 115.827C144.053 118.737 145.346 120.192 147.933 120.192C148.936 120.192 149.792 119.869 150.503 119.222C151.214 118.576 151.804 117.76 152.272 116.775C152.742 115.788 153.122 114.793 153.412 113.791C153.703 112.788 153.914 111.916 154.043 111.173C154.172 110.43 154.237 109.976 154.237 109.814C154.302 109.491 154.463 109.2 154.722 108.941C154.982 108.683 155.306 108.553 155.694 108.553C156.082 108.553 156.42 108.699 156.711 108.991C157.002 109.281 157.148 109.62 157.148 110.007C157.148 111.171 157.205 112.343 157.318 113.524C157.432 114.705 157.609 115.804 157.85 116.822C158.093 117.841 158.392 118.657 158.749 119.272C159.105 119.885 159.542 120.192 160.059 120.192C160.607 120.192 161.011 120.071 161.269 119.83C161.53 119.588 161.78 119.345 162.021 119.102C162.264 118.859 162.596 118.737 163.017 118.737Z" fill="#AC040D"/>
<path d="M194.492 113.888C194.492 114.244 194.363 114.576 194.104 114.883C193.846 115.189 193.49 115.342 193.038 115.342C192.327 115.342 191.826 114.979 191.534 114.252C191.242 113.524 191.097 112.755 191.097 111.946C191.097 110.783 191.541 109.846 192.43 109.135C193.321 108.424 194.405 107.907 195.682 107.584C196.958 107.259 198.179 107.097 199.342 107.097C200.926 107.097 202.3 107.615 203.463 108.65C204.628 109.685 205.356 111.204 205.648 113.209C206.036 115.861 206.521 117.688 207.103 118.69C207.684 119.692 208.331 120.192 209.044 120.192C209.496 120.192 209.795 120.152 209.94 120.071C210.085 119.991 210.222 119.91 210.351 119.83C210.48 119.748 210.691 119.707 210.983 119.707C211.371 119.707 211.709 119.853 212 120.144C212.291 120.435 212.437 120.775 212.437 121.164C212.437 122.456 211.306 123.103 209.044 123.103C207.588 123.103 206.44 122.65 205.599 121.745C204.758 120.839 204.128 119.659 203.707 118.203C203.287 116.748 202.965 115.213 202.738 113.597C202.544 112.173 202.139 111.22 201.524 110.736C200.911 110.25 200.184 110.007 199.342 110.007C198.858 110.007 198.187 110.073 197.33 110.201C196.474 110.331 195.706 110.541 195.027 110.833C194.347 111.123 194.007 111.494 194.007 111.946C194.007 112.109 194.088 112.384 194.249 112.772C194.411 113.159 194.492 113.532 194.492 113.888Z" fill="#AC040D"/>
</g>
<mask id="mask1_245_132" style="mask-type:luminance" maskUnits="userSpaceOnUse" x="193" y="86" width="23" height="19">
<path d="M193.555 86.4114H215.045V104.42H193.555V86.4114Z" fill="white"/>
</mask>
<g mask="url(#mask1_245_132)">
<mask id="mask2_245_132" style="mask-type:luminance" maskUnits="userSpaceOnUse" x="190" y="82" width="29" height="27">
<path d="M199.344 82.3325L218.071 92.3199L209.259 108.845L190.531 98.8568L199.344 82.3325Z" fill="white"/>
</mask>
<g mask="url(#mask2_245_132)">
<mask id="mask3_245_132" style="mask-type:luminance" maskUnits="userSpaceOnUse" x="190" y="82" width="29" height="27">
<path d="M199.344 82.3325L218.071 92.3199L209.259 108.845L190.531 98.8568L199.344 82.3325Z" fill="white"/>
</mask>
<g mask="url(#mask3_245_132)">
<path d="M193.834 99.601C194.04 100.163 194.479 100.658 195.026 100.92C195.894 101.334 196.857 101.211 197.701 100.803C198.121 100.599 198.514 100.335 198.874 100.037C199.11 99.8433 199.284 99.5726 199.542 99.4053C200.638 98.6971 199.652 100.87 199.586 101.149C199.263 102.487 200.211 103.978 201.545 104.311C202.879 104.646 204.386 103.825 204.882 102.544C205.155 101.843 205.195 100.99 205.774 100.509C206.051 101.242 206.416 101.955 206.948 102.534C207.907 103.574 209.467 104.093 210.805 103.634C212.144 103.176 213.084 101.652 212.712 100.286C212.447 99.3083 211.633 98.6161 210.782 98.1331C210.276 97.8458 210.09 97.6141 210.823 97.5993C211.387 97.5881 211.954 97.5485 212.502 97.4108C213.312 97.2104 214.094 96.7771 214.546 96.0765C215.16 95.1236 215.025 93.7829 214.308 92.9039C213.592 92.0254 212.377 91.6211 211.255 91.7872C210.732 91.8646 210.29 92.1549 209.877 92.4682C209.548 92.7177 209.053 93.2704 208.642 93.2993C208.605 92.9275 208.741 92.5338 208.813 92.1714C208.919 91.6524 208.998 91.1245 209.015 90.5948C209.049 89.5828 208.845 88.5306 208.255 87.7065C207.664 86.883 206.641 86.3297 205.638 86.4734C204.557 86.6294 203.708 87.5434 203.314 88.5625C203.117 89.0721 203.014 89.6094 202.956 90.1515C202.915 90.5375 202.937 90.9253 202.903 91.3125C202.866 91.721 202.784 91.7736 202.415 91.5909C201.89 91.3338 201.541 90.8053 201.096 90.4453C200.519 89.9777 199.937 89.5119 199.291 89.1383C198.772 88.8374 198.198 88.5968 197.599 88.6027C196.395 88.6163 195.555 89.6756 195.228 90.7403C194.826 92.052 195.2 93.333 196.538 93.897C197.245 94.1955 198.516 94.0105 198.977 94.75C199.362 95.366 198.283 95.3317 197.895 95.3873C196.85 95.5356 195.636 95.525 194.74 96.1587C193.73 96.8764 193.422 98.479 193.834 99.601Z" fill="#AC040D"/>
</g>
</g>
</g>
<mask id="mask4_245_132" style="mask-type:luminance" maskUnits="userSpaceOnUse" x="193" y="86" width="23" height="19">
<path d="M193.404 86.1086H215.196V104.723H193.404V86.1086Z" fill="white"/>
</mask>
<g mask="url(#mask4_245_132)">
<mask id="mask5_245_132" style="mask-type:luminance" maskUnits="userSpaceOnUse" x="190" y="82" width="29" height="27">
<path d="M199.344 82.3325L218.071 92.3199L209.259 108.845L190.531 98.8568L199.344 82.3325Z" fill="white"/>
</mask>
<g mask="url(#mask5_245_132)">
<mask id="mask6_245_132" style="mask-type:luminance" maskUnits="userSpaceOnUse" x="190" y="82" width="29" height="27">
<path d="M199.344 82.3325L218.071 92.3199L209.259 108.845L190.531 98.8568L199.344 82.3325Z" fill="white"/>
</mask>
<g mask="url(#mask6_245_132)">
<path d="M194.842 101.061C194.299 100.771 193.852 100.257 193.636 99.6725C193.418 99.0796 193.388 98.3531 193.551 97.678C193.727 96.9527 194.107 96.3544 194.624 95.9885C195.379 95.4541 196.309 95.3554 197.208 95.2596C197.438 95.2348 197.657 95.2117 197.869 95.1822C197.938 95.1721 198.018 95.1656 198.11 95.1585C198.275 95.1449 198.463 95.1296 198.62 95.0929C198.819 95.0468 198.85 94.9924 198.85 94.9924C198.853 94.9865 198.853 94.9469 198.801 94.863C198.554 94.4657 197.969 94.3824 197.404 94.3025C197.059 94.2535 196.732 94.2068 196.459 94.0933C195.771 93.8024 195.277 93.313 195.036 92.6757C194.812 92.0869 194.809 91.3965 195.031 90.6818C195.215 90.0818 195.539 89.5314 195.939 89.1306C196.415 88.6571 196.989 88.4023 197.6 88.3958C198.15 88.3899 198.723 88.5702 199.398 88.9592C200.035 89.3286 200.604 89.7773 201.23 90.2857C201.405 90.4282 201.564 90.5913 201.718 90.7498C201.972 91.0105 202.213 91.2593 202.509 91.4053C202.588 91.4449 202.64 91.465 202.669 91.4733C202.677 91.4408 202.686 91.3864 202.695 91.2954C202.709 91.121 202.714 90.9466 202.719 90.7622C202.724 90.5559 202.728 90.3442 202.751 90.1308C202.818 89.4977 202.94 88.9604 203.122 88.4898C203.339 87.9318 203.669 87.4317 204.077 87.0445C204.53 86.6153 205.061 86.3475 205.613 86.2683C206.133 86.1944 206.681 86.2872 207.197 86.5408C207.684 86.7808 208.11 87.1402 208.43 87.5859C209.142 88.5779 209.256 89.775 209.23 90.6037C209.213 91.0914 209.147 91.6022 209.024 92.2152C209.005 92.3074 208.983 92.402 208.961 92.4936C208.92 92.668 208.877 92.8448 208.86 93.015C209.06 92.908 209.284 92.71 209.461 92.5533C209.567 92.4599 209.665 92.3725 209.759 92.3021C210.188 91.9776 210.664 91.666 211.233 91.5809C212.464 91.3971 213.739 91.8653 214.477 92.7709C215.271 93.7445 215.377 95.1828 214.727 96.1883C214.288 96.8687 213.517 97.3741 212.557 97.6118C211.94 97.7643 211.311 97.7956 210.832 97.8051C210.767 97.8057 210.716 97.8098 210.672 97.814C210.722 97.8482 210.794 97.8938 210.89 97.9493C211.996 98.5765 212.677 99.3427 212.917 100.228C213.109 100.933 212.99 101.705 212.583 102.402C212.193 103.072 211.571 103.591 210.876 103.829C210.19 104.064 209.431 104.069 208.678 103.845C207.965 103.632 207.297 103.216 206.798 102.673C206.372 102.209 206.012 101.624 205.705 100.89C205.5 101.174 205.399 101.548 205.294 101.937C205.234 102.162 205.17 102.397 205.085 102.616C204.823 103.286 204.308 103.855 203.633 104.214C202.952 104.579 202.193 104.683 201.501 104.511C200.809 104.336 200.18 103.866 199.774 103.213C199.364 102.557 199.223 101.784 199.388 101.096C199.403 101.037 199.436 100.946 199.499 100.779C199.58 100.556 199.696 100.252 199.771 99.9722C199.852 99.6784 199.858 99.5389 199.851 99.4768C199.816 99.4875 199.755 99.5141 199.661 99.5744C199.534 99.6566 199.427 99.7742 199.313 99.8972C199.219 99.9976 199.125 100.102 199.012 100.192C198.602 100.528 198.203 100.788 197.796 100.984C196.801 101.464 195.785 101.504 194.939 101.1C194.903 101.093 194.873 101.077 194.842 101.061ZM194.03 99.5283C194.22 100.048 194.625 100.495 195.115 100.729C195.846 101.077 196.731 101.036 197.611 100.612C197.987 100.432 198.357 100.19 198.742 99.8735C198.831 99.8002 198.915 99.7121 198.999 99.6175C199.128 99.4792 199.259 99.3379 199.429 99.2268C199.538 99.1553 199.876 98.9371 200.115 99.1287C200.402 99.3574 200.262 99.9143 199.885 100.925C199.841 101.04 199.799 101.157 199.791 101.195C199.499 102.409 200.361 103.795 201.599 104.106C202.81 104.411 204.226 103.659 204.691 102.466C204.768 102.266 204.827 102.054 204.888 101.828C205.035 101.285 205.187 100.724 205.642 100.345L205.868 100.156L205.973 100.43C206.286 101.259 206.657 101.899 207.105 102.386C208.049 103.411 209.542 103.841 210.74 103.43C212.015 102.994 212.843 101.548 212.514 100.335C212.304 99.5614 211.687 98.8804 210.682 98.3105C210.312 98.1013 210.079 97.9127 210.139 97.6744C210.2 97.4315 210.504 97.3919 210.822 97.3848C211.279 97.3753 211.877 97.3475 212.455 97.2039C213.313 96.9923 213.994 96.5495 214.376 95.9589C214.929 95.1006 214.835 93.871 214.152 93.0322C213.504 92.2365 212.381 91.8298 211.292 91.9912C210.841 92.058 210.453 92.2962 210.009 92.632C209.93 92.6929 209.834 92.775 209.736 92.8625C209.408 93.1498 209.038 93.4755 208.663 93.5045L208.461 93.5199L208.44 93.3195C208.407 93.002 208.482 92.6929 208.553 92.392C208.575 92.3003 208.597 92.2134 208.614 92.1265C208.734 91.5366 208.797 91.0465 208.812 90.5848C208.838 89.8217 208.734 88.7215 208.091 87.8254C207.51 87.0149 206.539 86.5532 205.675 86.6774C204.77 86.8115 203.922 87.5794 203.512 88.6388C203.343 89.0768 203.23 89.5793 203.166 90.1728C203.146 90.3679 203.14 90.5618 203.136 90.7687C203.132 90.9507 203.127 91.1399 203.113 91.3291C203.094 91.5401 203.062 91.7565 202.886 91.8546C202.711 91.9527 202.514 91.87 202.326 91.7766C201.963 91.5986 201.686 91.3125 201.417 91.0371C201.265 90.8792 201.123 90.732 200.966 90.6067C200.353 90.1101 199.797 89.6715 199.187 89.3186C198.58 88.968 198.075 88.8073 197.604 88.8114C196.447 88.8238 195.71 89.8908 195.431 90.8018C195.029 92.1135 195.486 93.2255 196.624 93.7043C196.847 93.7989 197.148 93.8415 197.467 93.8858C198.095 93.9751 198.808 94.0755 199.161 94.6395C199.317 94.8872 199.284 95.0687 199.229 95.1769C199.068 95.4973 198.558 95.5398 198.148 95.5717C198.065 95.5794 197.987 95.5842 197.93 95.593C197.709 95.6255 197.478 95.6492 197.254 95.6722C196.407 95.7615 195.533 95.8561 194.867 96.3266C193.913 97.0053 193.663 98.5292 194.03 99.5283Z" fill="#AC040D"/>
</g>
</g>
</g>
<mask id="mask7_245_132" style="mask-type:luminance" maskUnits="userSpaceOnUse" x="201" y="93" width="5" height="6">
<path d="M201.879 93.978H205.965V98.3667H201.879V93.978Z" fill="white"/>
</mask>
<g mask="url(#mask7_245_132)">
<mask id="mask8_245_132" style="mask-type:luminance" maskUnits="userSpaceOnUse" x="190" y="82" width="29" height="27">
<path d="M199.344 82.3325L218.071 92.3199L209.259 108.845L190.531 98.8568L199.344 82.3325Z" fill="white"/>
</mask>
<g mask="url(#mask8_245_132)">
<mask id="mask9_245_132" style="mask-type:luminance" maskUnits="userSpaceOnUse" x="190" y="82" width="29" height="27">
<path d="M199.344 82.3325L218.071 92.3199L209.259 108.845L190.531 98.8568L199.344 82.3325Z" fill="white"/>
</mask>
<g mask="url(#mask9_245_132)">
<path d="M202.868 94.6036C202.453 94.9624 202.128 95.4347 201.999 95.9662C201.87 96.4976 201.955 97.0905 202.276 97.5351C202.532 97.888 202.931 98.1321 203.362 98.2031C204.249 98.3438 205.497 97.9477 205.843 97.1189C206.126 96.4462 205.893 94.911 205.286 94.3565C204.618 93.7423 203.466 94.0863 202.868 94.6036Z" fill="#FDE1A2"/>
</g>
</g>
</g>
<mask id="mask10_245_132" style="mask-type:luminance" maskUnits="userSpaceOnUse" x="201" y="93" width="6" height="6">
<path d="M201.727 93.8267H206.116V98.3667H201.727V93.8267Z" fill="white"/>
</mask>
<g mask="url(#mask10_245_132)">
<mask id="mask11_245_132" style="mask-type:luminance" maskUnits="userSpaceOnUse" x="190" y="82" width="29" height="27">
<path d="M199.344 82.3325L218.071 92.3199L209.259 108.845L190.531 98.8568L199.344 82.3325Z" fill="white"/>
</mask>
<g mask="url(#mask11_245_132)">
<mask id="mask12_245_132" style="mask-type:luminance" maskUnits="userSpaceOnUse" x="190" y="82" width="29" height="27">
<path d="M199.344 82.3325L218.071 92.3199L209.259 108.845L190.531 98.8568L199.344 82.3325Z" fill="white"/>
</mask>
<g mask="url(#mask12_245_132)">
<path d="M202.787 98.1297C202.55 98.0032 202.341 97.8229 202.181 97.6024C201.854 97.1501 201.743 96.5283 201.886 95.9377C202.011 95.4175 202.333 94.9103 202.791 94.513C203.121 94.2263 203.584 94.0118 204.03 93.9373C204.561 93.8492 205.034 93.9662 205.363 94.2671C206.007 94.8565 206.248 96.4479 205.949 97.1608C205.777 97.5705 205.385 97.9145 204.845 98.1285C204.359 98.3212 203.812 98.3886 203.34 98.3141C203.149 98.2857 202.961 98.2225 202.787 98.1297ZM202.944 94.691C202.524 95.0563 202.227 95.5198 202.113 95.9927C201.985 96.517 202.083 97.068 202.37 97.4646C202.609 97.7939 202.978 98.0197 203.381 98.0848C203.805 98.1533 204.321 98.0871 204.763 97.9127C205.244 97.7218 205.59 97.4221 205.739 97.0709C205.867 96.7653 205.884 96.2457 205.785 95.7113C205.681 95.1497 205.467 94.6762 205.21 94.4386C204.581 93.8669 203.491 94.2181 202.944 94.691Z" fill="#AC040D"/>
</g>
</g>
</g>
</svg>
