<svg width="185" height="188" viewBox="0 0 185 188" fill="none" xmlns="http://www.w3.org/2000/svg">
<g opacity="0.9">
<mask id="mask0_508_377" style="mask-type:luminance" maskUnits="userSpaceOnUse" x="9" y="75" width="166" height="41">
<path d="M174.763 75.5759H9.98999V115.808H174.763V75.5759Z" fill="white"/>
</mask>
<g mask="url(#mask0_508_377)">
<path d="M18.9795 93.5183C18.6634 93.5183 18.3864 93.3978 18.1489 93.156C17.9123 92.9146 17.7943 92.6331 17.7943 92.3119C17.7943 91.9908 17.9128 91.7102 18.1508 91.4698C19.6255 89.9698 20.6589 88.4237 21.2515 86.8306C21.845 85.2365 22.1418 83.7168 22.1418 82.2716C22.1418 81.1739 21.9375 80.3636 21.529 79.8413C21.1205 79.3194 20.7977 79.0579 20.5616 79.0579C20.1656 79.0579 19.81 79.2185 19.494 79.5397C19.178 79.8608 18.8219 80.5169 18.4264 81.5078C18.0048 82.5785 17.6623 84.1183 17.3993 86.1275C17.1357 88.1358 17.0042 90.3311 17.0042 92.7134C17.0042 95.2044 17.0832 97.6552 17.2412 100.065C18.1633 99.7702 19.0922 99.5421 20.0278 99.3815C20.9629 99.2209 21.7993 99.1406 22.5369 99.1406C22.8539 99.1406 23.1309 99.2616 23.3674 99.5029C23.6049 99.7433 23.7239 100.025 23.7239 100.347C23.7239 100.668 23.6049 100.95 23.3674 101.191C23.1309 101.431 22.8539 101.551 22.5369 101.551C21.8788 101.551 21.0887 101.659 20.1665 101.873C19.244 102.086 18.3344 102.341 17.4378 102.636C17.5968 104.456 17.7818 106.143 17.9928 107.697C18.2033 109.25 18.4206 110.568 18.6441 111.652C18.8677 112.737 19.072 113.481 19.257 113.883C19.3365 114.044 19.3764 114.217 19.3764 114.404C19.3764 114.699 19.2705 114.974 19.0585 115.228C18.8475 115.483 18.5579 115.61 18.1894 115.61C17.7153 115.61 17.3593 115.382 17.1218 114.927C16.7002 114.043 16.3114 112.583 15.9559 110.548C15.5998 108.514 15.3166 106.197 15.106 103.6C14.8425 103.734 14.6055 103.868 14.3949 104.001C14.1839 104.135 14.0134 104.27 13.8823 104.403C13.6443 104.644 13.3678 104.765 13.0518 104.765C12.7357 104.765 12.4587 104.644 12.2212 104.403C11.9832 104.162 11.8647 103.881 11.8647 103.559C11.8647 103.237 11.9832 102.956 12.2212 102.717C12.5372 102.395 12.9255 102.094 13.3871 101.814C13.8481 101.532 14.3554 101.257 14.9095 100.989C14.8295 99.6498 14.7635 98.2844 14.711 96.8925C14.658 95.4996 14.632 94.1067 14.632 92.7134C14.632 90.2498 14.7635 87.9541 15.027 85.8259C15.2901 83.6967 15.6861 81.9631 16.2141 80.6246C16.6082 79.6063 17.1352 78.6893 17.7943 77.8731C18.4534 77.056 19.3755 76.6472 20.5616 76.6472C21.4567 76.6472 22.1943 76.9351 22.7739 77.5108C23.3544 78.0866 23.7895 78.8033 24.0785 79.6611C24.3685 80.5179 24.514 81.3879 24.514 82.2716C24.514 84.038 24.1518 85.8651 23.4272 87.7529C22.7026 89.6408 21.4967 91.4419 19.81 93.156C19.5735 93.3978 19.2965 93.5183 18.9795 93.5183Z" fill="#E9E2D7"/>
<path d="M50.6018 93.5183C50.2857 93.5183 50.0087 93.3978 49.7712 93.156C49.5332 92.9146 49.4147 92.6331 49.4147 92.3119C49.4147 91.9908 49.5332 91.7102 49.7712 91.4698C51.2474 89.9698 52.2812 88.4237 52.8738 86.8305C53.4674 85.2365 53.7641 83.7168 53.7641 82.2715C53.7641 81.1739 53.5599 80.3636 53.1513 79.8413C52.7428 79.3194 52.4195 79.0579 52.182 79.0579C51.786 79.0579 51.4304 79.2185 51.1144 79.5397C50.7983 79.8608 50.4423 80.5169 50.0468 81.5078C49.6252 82.5785 49.2827 84.1183 49.0196 86.1275C48.7561 88.1358 48.6246 90.3311 48.6246 92.7134C48.6246 94.7226 48.9339 96.3632 49.5534 97.6347C50.1725 98.9066 51.1804 99.5421 52.577 99.5421C53.3681 99.5421 54.1192 99.3688 54.8298 99.0212C55.5414 98.6726 56.3585 98.0298 57.281 97.0922C57.5186 96.8523 57.7956 96.7319 58.1116 96.7319C58.4277 96.7319 58.7037 96.8528 58.9403 97.0942C59.1778 97.3346 59.2968 97.6151 59.2968 97.9363C59.2968 98.2574 59.1778 98.5389 58.9403 98.7803C57.8866 99.851 56.859 100.648 55.8569 101.169C54.8558 101.692 53.7627 101.953 52.577 101.953C51.3129 101.953 50.265 101.665 49.434 101.089C48.6039 100.513 47.9583 99.7644 47.4972 98.841C47.0372 97.9167 46.7148 96.912 46.5298 95.8271C46.3448 94.7422 46.2523 93.7043 46.2523 92.7134C46.2523 90.2498 46.3839 87.9541 46.6474 85.8259C46.9119 83.6967 47.3074 81.9631 47.8345 80.6246C48.23 79.6063 48.7566 78.6893 49.4147 77.8731C50.0738 77.056 50.9959 76.6472 52.182 76.6472C53.0771 76.6472 53.8147 76.9351 54.3943 77.5108C54.9748 78.0866 55.4099 78.8033 55.6989 79.6611C55.9889 80.5179 56.1344 81.3879 56.1344 82.2715C56.1344 84.038 55.7721 85.8651 55.0476 87.7529C54.323 89.6408 53.1171 91.4419 51.4304 93.156C51.1939 93.3978 50.9178 93.5183 50.6018 93.5183Z" fill="#E9E2D7"/>
<path d="M87.3599 101.953C86.0958 101.953 84.9887 101.652 84.0396 101.05C83.0914 100.447 82.3534 99.6233 81.8254 98.5785C81.2983 97.5342 81.0352 96.3827 81.0352 95.124C81.0352 93.9999 81.2858 92.9493 81.7868 91.9711C82.2879 90.9934 82.9859 90.2037 83.8816 89.6015C84.7781 88.9984 85.8057 88.6968 86.9649 88.6968C88.072 88.6968 89.0076 89.0855 89.7707 89.862C90.5348 90.639 90.9173 91.5892 90.9173 92.7133C90.9173 93.7042 90.6668 94.6418 90.1658 95.5255C89.6657 96.4097 89.0201 97.1734 88.2291 97.8167C87.4389 98.4591 86.5958 98.9271 85.7007 99.2209C86.2003 99.4353 86.7534 99.542 87.3599 99.542C88.0985 99.542 88.7576 99.4823 89.3371 99.3619C89.9162 99.2419 90.6673 98.9408 91.5899 98.4591C91.7479 98.3783 91.9194 98.3377 92.1044 98.3377C92.3935 98.3377 92.6633 98.4449 92.9138 98.6588C93.1643 98.8733 93.2896 99.1675 93.2896 99.542C93.2896 100.025 93.0651 100.387 92.617 100.627C91.5634 101.136 90.6345 101.485 89.8305 101.673C89.0273 101.86 88.204 101.953 87.3599 101.953ZM88.547 92.7133C88.547 92.2316 88.4015 91.8438 88.1115 91.5501C87.821 91.2553 87.4389 91.1075 86.9649 91.1075C85.9638 91.1075 85.1207 91.4962 84.4346 92.2727C83.7495 93.0497 83.4075 93.9999 83.4075 95.124C83.4075 95.901 83.526 96.5707 83.764 97.1333C84.5011 97.1333 85.2324 96.9056 85.957 96.4498C86.6816 95.9945 87.2944 95.4251 87.7955 94.7422C88.2965 94.0597 88.547 93.3831 88.547 92.7133Z" fill="#E9E2D7"/>
<path d="M132.855 98.3376C133.171 98.3376 133.441 98.4649 133.664 98.7195C133.889 98.9741 134.002 99.2482 134.002 99.542C134.002 99.8098 133.909 100.064 133.724 100.306C133.698 100.333 133.553 100.487 133.289 100.768C133.025 101.049 132.657 101.316 132.183 101.571C131.708 101.825 131.129 101.953 130.444 101.953C129.627 101.953 128.942 101.732 128.388 101.291C127.834 100.848 127.399 100.293 127.083 99.6242C126.767 98.9545 126.517 98.3117 126.334 97.6953C125.991 98.3915 125.556 99.0676 125.029 99.7241C124.502 100.38 123.876 100.915 123.15 101.33C122.426 101.745 121.563 101.953 120.562 101.953C119.402 101.953 118.407 101.679 117.577 101.13C116.747 100.581 116.114 99.8509 115.679 98.9408C115.244 98.0297 115.028 97.025 115.028 95.9269C115.028 94.6422 115.1 93.6724 115.245 93.0168C115.39 92.3603 115.477 91.9916 115.504 91.9104C115.714 91.3753 116.083 91.1075 116.61 91.1075C116.978 91.1075 117.268 91.2347 117.479 91.4893C117.689 91.7439 117.795 92.0181 117.795 92.3118C117.795 92.5263 117.762 92.7476 117.697 92.9757C117.631 93.2029 117.565 93.5309 117.498 93.9588C117.433 94.3872 117.4 95.0432 117.4 95.9269C117.4 98.3371 118.454 99.542 120.562 99.542C121.379 99.542 122.077 99.2747 122.657 98.7391C123.236 98.204 123.717 97.5283 124.098 96.7122C124.481 95.8951 124.791 95.0711 125.027 94.2408C125.265 93.4105 125.436 92.6878 125.542 92.0729C125.647 91.457 125.7 91.0815 125.7 90.9469C125.752 90.6796 125.884 90.4387 126.095 90.2242C126.307 90.0103 126.571 89.9031 126.887 89.9031C127.203 89.9031 127.479 90.024 127.716 90.2654C127.953 90.5058 128.072 90.7863 128.072 91.1075C128.072 92.071 128.118 93.0418 128.211 94.0195C128.303 94.9977 128.448 95.9083 128.644 96.7514C128.842 97.5949 129.086 98.271 129.377 98.7802C129.667 99.2884 130.023 99.542 130.444 99.542C130.891 99.542 131.22 99.4421 131.431 99.2424C131.643 99.0416 131.847 98.8404 132.044 98.6392C132.241 98.4385 132.512 98.3376 132.855 98.3376Z" fill="#E9E2D7"/>
<path d="M158.507 94.3211C158.507 94.6163 158.401 94.891 158.191 95.1456C157.98 95.3992 157.69 95.5255 157.322 95.5255C156.742 95.5255 156.333 95.2249 156.096 94.6227C155.858 94.0195 155.739 93.3831 155.739 92.7133C155.739 91.7498 156.102 90.9738 156.826 90.3849C157.552 89.7964 158.435 89.368 159.476 89.1002C160.517 88.8314 161.511 88.6968 162.459 88.6968C163.75 88.6968 164.87 89.1257 165.818 89.9834C166.767 90.8402 167.361 92.0984 167.599 93.7591C167.915 95.9553 168.31 97.4682 168.784 98.2985C169.258 99.1278 169.785 99.542 170.366 99.542C170.735 99.542 170.978 99.5087 171.096 99.4422C171.214 99.3756 171.326 99.309 171.432 99.2424C171.537 99.1748 171.708 99.1406 171.946 99.1406C172.262 99.1406 172.538 99.2615 172.775 99.5029C173.012 99.7432 173.131 100.025 173.131 100.347C173.131 101.418 172.209 101.953 170.366 101.953C169.18 101.953 168.244 101.578 167.558 100.829C166.873 100.078 166.36 99.1004 166.017 97.8951C165.675 96.6902 165.411 95.4188 165.226 94.0802C165.068 92.9013 164.739 92.1116 164.238 91.7107C163.738 91.3087 163.145 91.1075 162.459 91.1075C162.065 91.1075 161.518 91.1613 160.819 91.2681C160.122 91.3753 159.496 91.5496 158.942 91.7909C158.388 92.0313 158.112 92.3388 158.112 92.7133C158.112 92.848 158.177 93.0756 158.308 93.3968C158.44 93.7179 158.507 94.0264 158.507 94.3211Z" fill="#E9E2D7"/>
</g>
<mask id="mask1_508_377" style="mask-type:luminance" maskUnits="userSpaceOnUse" x="157" y="71" width="19" height="16">
<path d="M157.743 71.5654H175.257V86.4801H157.743V71.5654Z" fill="white"/>
</mask>
<g mask="url(#mask1_508_377)">
<mask id="mask2_508_377" style="mask-type:luminance" maskUnits="userSpaceOnUse" x="155" y="68" width="23" height="23">
<path d="M162.461 68.1873L177.723 76.4588L170.541 90.1446L155.279 81.8726L162.461 68.1873Z" fill="white"/>
</mask>
<g mask="url(#mask2_508_377)">
<mask id="mask3_508_377" style="mask-type:luminance" maskUnits="userSpaceOnUse" x="155" y="68" width="23" height="23">
<path d="M162.461 68.1873L177.723 76.4588L170.541 90.1446L155.279 81.8726L162.461 68.1873Z" fill="white"/>
</mask>
<g mask="url(#mask3_508_377)">
<path d="M157.97 82.4889C158.138 82.9545 158.496 83.3642 158.941 83.5811C159.649 83.9238 160.434 83.822 161.122 83.4842C161.465 83.3158 161.784 83.0964 162.078 82.8502C162.27 82.6896 162.412 82.4654 162.623 82.3268C163.516 81.7403 162.712 83.5395 162.658 83.7711C162.395 84.879 163.168 86.1137 164.255 86.3899C165.342 86.667 166.57 85.9869 166.975 84.926C167.197 84.3459 167.229 83.6389 167.701 83.2409C167.927 83.848 168.224 84.4384 168.658 84.9177C169.44 85.7794 170.711 86.2092 171.801 85.8293C172.893 85.4494 173.659 84.1872 173.356 83.0558C173.139 82.2465 172.476 81.6732 171.783 81.2732C171.37 81.0353 171.219 80.8434 171.816 80.8311C172.276 80.8218 172.738 80.789 173.185 80.675C173.845 80.509 174.481 80.1501 174.85 79.57C175.351 78.7808 175.24 77.6704 174.656 76.9424C174.072 76.2149 173.082 75.88 172.169 76.0176C171.742 76.0817 171.382 76.3221 171.045 76.5816C170.777 76.7882 170.374 77.2459 170.039 77.2699C170.008 76.962 170.12 76.6359 170.178 76.3358C170.264 75.9059 170.329 75.4687 170.343 75.0301C170.37 74.1919 170.204 73.3204 169.723 72.638C169.242 71.956 168.408 71.4977 167.59 71.6167C166.709 71.7459 166.017 72.5028 165.696 73.3469C165.535 73.7689 165.452 74.2139 165.405 74.6629C165.371 74.9826 165.389 75.3037 165.361 75.6244C165.332 75.9627 165.265 76.0063 164.964 75.855C164.536 75.6421 164.251 75.2044 163.889 74.9062C163.419 74.5189 162.944 74.1332 162.417 73.8237C161.995 73.5745 161.527 73.3753 161.039 73.3802C160.058 73.3914 159.373 74.2688 159.107 75.1505C158.779 76.2369 159.084 77.2978 160.174 77.7649C160.75 78.0121 161.786 77.8589 162.162 78.4714C162.475 78.9815 161.597 78.9531 161.28 78.9991C160.428 79.122 159.439 79.1132 158.709 79.638C157.886 80.2324 157.634 81.5596 157.97 82.4889Z" fill="#E9E2D7"/>
</g>
</g>
</g>
<mask id="mask4_508_377" style="mask-type:luminance" maskUnits="userSpaceOnUse" x="157" y="71" width="19" height="16">
<path d="M157.62 71.3147H175.38V86.7307H157.62V71.3147Z" fill="white"/>
</mask>
<g mask="url(#mask4_508_377)">
<mask id="mask5_508_377" style="mask-type:luminance" maskUnits="userSpaceOnUse" x="155" y="68" width="23" height="23">
<path d="M162.461 68.1873L177.723 76.4588L170.541 90.1446L155.279 81.8726L162.461 68.1873Z" fill="white"/>
</mask>
<g mask="url(#mask5_508_377)">
<mask id="mask6_508_377" style="mask-type:luminance" maskUnits="userSpaceOnUse" x="155" y="68" width="23" height="23">
<path d="M162.461 68.1873L177.723 76.4588L170.541 90.1446L155.279 81.8726L162.461 68.1873Z" fill="white"/>
</mask>
<g mask="url(#mask6_508_377)">
<path d="M158.792 83.6978C158.349 83.4579 157.985 83.0324 157.809 82.5482C157.632 82.0572 157.607 81.4555 157.74 80.8964C157.883 80.2956 158.193 79.8002 158.614 79.4971C159.229 79.0545 159.987 78.9728 160.72 78.8935C160.908 78.8729 161.086 78.8538 161.259 78.8293C161.315 78.821 161.38 78.8156 161.455 78.8098C161.589 78.7985 161.743 78.7858 161.871 78.7554C162.033 78.7172 162.059 78.6722 162.059 78.6722C162.061 78.6673 162.06 78.6345 162.019 78.565C161.817 78.236 161.34 78.1669 160.88 78.1008C160.599 78.0602 160.332 78.0215 160.109 77.9275C159.549 77.6867 159.146 77.2813 158.95 76.7535C158.768 76.2659 158.765 75.694 158.946 75.1021C159.096 74.6052 159.36 74.1494 159.686 73.8175C160.074 73.4253 160.541 73.2143 161.039 73.2089C161.488 73.204 161.955 73.3534 162.505 73.6755C163.024 73.9815 163.488 74.3531 163.998 74.7741C164.141 74.8921 164.27 75.0272 164.396 75.1584C164.603 75.3744 164.799 75.5805 165.04 75.7014C165.105 75.7342 165.147 75.7508 165.171 75.7577C165.177 75.7308 165.185 75.6857 165.192 75.6103C165.204 75.4659 165.207 75.3215 165.211 75.1687C165.215 74.9979 165.219 74.8226 165.238 74.6459C165.292 74.1215 165.391 73.6765 165.54 73.2868C165.717 72.8246 165.986 72.4104 166.318 72.0897C166.687 71.7343 167.12 71.5125 167.57 71.4469C167.994 71.3857 168.441 71.4626 168.861 71.6726C169.258 71.8714 169.605 72.169 169.866 72.5382C170.446 73.3597 170.539 74.3511 170.517 75.0375C170.504 75.4414 170.45 75.8644 170.35 76.3721C170.334 76.4485 170.317 76.5268 170.299 76.6027C170.265 76.7471 170.23 76.8935 170.216 77.0345C170.379 76.9459 170.561 76.7819 170.706 76.6522C170.792 76.5748 170.873 76.5024 170.949 76.4441C171.298 76.1753 171.686 75.9173 172.15 75.8468C173.154 75.6945 174.192 76.0823 174.794 76.8323C175.441 77.6387 175.527 78.8298 174.998 79.6626C174.64 80.2261 174.012 80.6447 173.229 80.8415C172.726 80.9678 172.214 80.9938 171.823 81.0016C171.771 81.0021 171.729 81.0055 171.693 81.009C171.734 81.0374 171.793 81.0751 171.87 81.1211C172.772 81.6405 173.327 82.275 173.523 83.0079C173.679 83.592 173.582 84.2314 173.251 84.8091C172.932 85.3633 172.426 85.7932 171.859 85.991C171.3 86.1853 170.681 86.1892 170.068 86.0037C169.487 85.8274 168.942 85.4833 168.535 85.0329C168.188 84.649 167.895 84.1643 167.645 83.5568C167.478 83.7918 167.396 84.1012 167.31 84.4238C167.261 84.6103 167.209 84.8042 167.139 84.9863C166.926 85.541 166.507 86.012 165.956 86.3097C165.401 86.6118 164.782 86.6979 164.218 86.5555C163.655 86.4105 163.143 86.0208 162.811 85.4808C162.477 84.9374 162.362 84.297 162.497 83.7271C162.509 83.6782 162.536 83.6033 162.587 83.4642C162.654 83.2801 162.748 83.028 162.809 82.7964C162.875 82.5531 162.879 82.4376 162.874 82.3862C162.846 82.395 162.796 82.417 162.72 82.4669C162.616 82.535 162.529 82.6324 162.435 82.7343C162.359 82.8175 162.282 82.9037 162.191 82.9786C161.856 83.2571 161.531 83.4721 161.2 83.6346C160.388 84.0317 159.561 84.0654 158.871 83.7306C158.842 83.7247 158.817 83.7115 158.792 83.6978ZM158.13 82.4288C158.285 82.8591 158.615 83.2292 159.014 83.4231C159.61 83.7115 160.331 83.6772 161.048 83.3267C161.355 83.1773 161.657 82.9766 161.97 82.7147C162.043 82.654 162.111 82.581 162.18 82.5027C162.285 82.3881 162.392 82.2711 162.53 82.1791C162.619 82.1198 162.894 81.9392 163.09 82.0978C163.323 82.2873 163.209 82.7485 162.902 83.5856C162.866 83.6806 162.831 83.7776 162.825 83.8089C162.588 84.8145 163.289 85.9621 164.298 86.2196C165.286 86.4722 166.44 85.8495 166.818 84.8615C166.881 84.696 166.929 84.5203 166.979 84.3337C167.099 83.8838 167.223 83.4192 167.594 83.1054L167.778 82.9487L167.863 83.1759C168.118 83.8618 168.421 84.3925 168.786 84.7959C169.555 85.6443 170.772 86.0008 171.748 85.66C172.787 85.2992 173.462 84.1012 173.194 83.0965C173.023 82.4562 172.52 81.8922 171.701 81.4202C171.4 81.2469 171.209 81.0907 171.258 80.8934C171.308 80.6922 171.556 80.6594 171.815 80.6535C172.188 80.6457 172.675 80.6227 173.146 80.5037C173.845 80.3284 174.4 79.9617 174.711 79.4727C175.162 78.7618 175.086 77.7434 174.529 77.0487C174.001 76.3897 173.086 76.0529 172.198 76.1866C171.831 76.2419 171.515 76.4392 171.152 76.7173C171.088 76.7677 171.01 76.8358 170.93 76.9082C170.663 77.1462 170.361 77.4159 170.056 77.4399L169.891 77.4526L169.874 77.2867C169.847 77.0238 169.908 76.7677 169.966 76.5185C169.984 76.4426 170.002 76.3707 170.016 76.2987C170.114 75.8101 170.165 75.4042 170.177 75.0219C170.198 74.3898 170.113 73.4787 169.589 72.7365C169.116 72.0653 168.325 71.6829 167.62 71.7857C166.883 71.8968 166.192 72.5328 165.858 73.4101C165.72 73.7729 165.628 74.1891 165.576 74.6806C165.559 74.8422 165.555 75.0028 165.551 75.1741C165.548 75.3249 165.544 75.4816 165.532 75.6382C165.517 75.813 165.491 75.9922 165.348 76.0735C165.205 76.1547 165.045 76.0862 164.891 76.0089C164.596 75.8615 164.369 75.6245 164.15 75.3964C164.027 75.2657 163.91 75.1438 163.782 75.04C163.283 74.6287 162.83 74.2654 162.333 73.9732C161.838 73.6828 161.427 73.5497 161.043 73.5531C160.1 73.5634 159.499 74.4471 159.272 75.2015C158.944 76.2879 159.317 77.2088 160.244 77.6054C160.426 77.6837 160.672 77.719 160.931 77.7557C161.443 77.8296 162.024 77.9128 162.312 78.3799C162.439 78.585 162.412 78.7353 162.367 78.8249C162.236 79.0903 161.821 79.1255 161.486 79.152C161.419 79.1583 161.355 79.1623 161.308 79.1696C161.128 79.1965 160.94 79.2161 160.757 79.2352C160.067 79.3091 159.355 79.3875 158.812 79.7772C158.034 80.3392 157.831 81.6014 158.13 82.4288Z" fill="#E9E2D7"/>
</g>
</g>
</g>
<mask id="mask7_508_377" style="mask-type:luminance" maskUnits="userSpaceOnUse" x="164" y="77" width="4" height="5">
<path d="M164.527 77.832H167.857V81.4667H164.527V77.832Z" fill="white"/>
</mask>
<g mask="url(#mask7_508_377)">
<mask id="mask8_508_377" style="mask-type:luminance" maskUnits="userSpaceOnUse" x="155" y="68" width="23" height="23">
<path d="M162.461 68.1873L177.723 76.4588L170.541 90.1446L155.279 81.8726L162.461 68.1873Z" fill="white"/>
</mask>
<g mask="url(#mask8_508_377)">
<mask id="mask9_508_377" style="mask-type:luminance" maskUnits="userSpaceOnUse" x="155" y="68" width="23" height="23">
<path d="M162.461 68.1873L177.723 76.4588L170.541 90.1446L155.279 81.8726L162.461 68.1873Z" fill="white"/>
</mask>
<g mask="url(#mask9_508_377)">
<path d="M165.333 78.35C164.995 78.6471 164.73 79.0383 164.624 79.4784C164.52 79.9186 164.589 80.4096 164.85 80.7778C165.06 81.0701 165.384 81.2723 165.736 81.331C166.458 81.4475 167.476 81.1195 167.757 80.4331C167.988 79.876 167.798 78.6045 167.304 78.1453C166.759 77.6366 165.82 77.9216 165.333 78.35Z" fill="#FDE1A2"/>
</g>
</g>
</g>
<mask id="mask10_508_377" style="mask-type:luminance" maskUnits="userSpaceOnUse" x="164" y="77" width="4" height="5">
<path d="M164.403 77.7068H167.98V81.4668H164.403V77.7068Z" fill="white"/>
</mask>
<g mask="url(#mask10_508_377)">
<mask id="mask11_508_377" style="mask-type:luminance" maskUnits="userSpaceOnUse" x="155" y="68" width="23" height="23">
<path d="M162.461 68.1873L177.723 76.4588L170.541 90.1446L155.279 81.8726L162.461 68.1873Z" fill="white"/>
</mask>
<g mask="url(#mask11_508_377)">
<mask id="mask12_508_377" style="mask-type:luminance" maskUnits="userSpaceOnUse" x="155" y="68" width="23" height="23">
<path d="M162.461 68.1873L177.723 76.4588L170.541 90.1446L155.279 81.8726L162.461 68.1873Z" fill="white"/>
</mask>
<g mask="url(#mask12_508_377)">
<path d="M165.267 81.2705C165.073 81.1657 164.903 81.0164 164.773 80.8337C164.506 80.4592 164.416 79.9442 164.532 79.4551C164.635 79.0242 164.897 78.6042 165.27 78.2752C165.539 78.0377 165.917 77.86 166.28 77.7983C166.712 77.7254 167.098 77.8223 167.366 78.0715C167.891 78.5596 168.087 79.8776 167.844 80.468C167.703 80.8073 167.384 81.0922 166.944 81.2695C166.548 81.4291 166.102 81.4849 165.718 81.4232C165.562 81.3997 165.409 81.3473 165.267 81.2705ZM165.395 78.4225C165.052 78.7251 164.81 79.1089 164.717 79.5006C164.613 79.9349 164.693 80.3912 164.927 80.7197C165.122 80.9924 165.423 81.1794 165.751 81.2332C166.096 81.29 166.517 81.2352 166.878 81.0908C167.269 80.9326 167.552 80.6844 167.673 80.3936C167.777 80.1405 167.791 79.7102 167.71 79.2676C167.626 78.8025 167.451 78.4103 167.242 78.2135C166.729 77.7401 165.841 78.0309 165.395 78.4225Z" fill="#E9E2D7"/>
</g>
</g>
</g>
</g>
</svg>
