<svg width="252" height="98" viewBox="0 0 252 98" fill="none" xmlns="http://www.w3.org/2000/svg">
<mask id="mask0_1188_1039" style="mask-type:luminance" maskUnits="userSpaceOnUse" x="13" y="24" width="226" height="55">
<path d="M238.056 24.304H13.608V78.232H238.056V24.304Z" fill="white"/>
</mask>
<g mask="url(#mask0_1188_1039)">
<path d="M25.8531 48.3545C25.4226 48.3545 25.0453 48.1931 24.7217 47.8689C24.3995 47.5453 24.2387 47.168 24.2387 46.7375C24.2387 46.307 24.4002 45.931 24.7244 45.6087C26.7332 43.598 28.1408 41.5255 28.948 39.3901C29.7565 37.2534 30.1607 35.2164 30.1607 33.2791C30.1607 31.8078 29.8825 30.7217 29.326 30.0215C28.7695 29.3219 28.3298 28.9715 28.0082 28.9715C27.4688 28.9715 26.9845 29.1867 26.554 29.6172C26.1235 30.0477 25.6385 30.9271 25.0997 32.2554C24.5255 33.6906 24.0589 35.7545 23.7006 38.4477C23.3417 41.1397 23.1625 44.0823 23.1625 47.2756C23.1625 50.6146 23.2701 53.8998 23.4854 57.1299C24.7414 56.7348 26.0067 56.429 27.2811 56.2137C28.5549 55.9985 29.6942 55.8909 30.6989 55.8909C31.1307 55.8909 31.508 56.053 31.8302 56.3765C32.1538 56.6987 32.3159 57.076 32.3159 57.5079C32.3159 57.9384 32.1538 58.3157 31.8302 58.6392C31.508 58.9615 31.1307 59.1222 30.6989 59.1222C29.8024 59.1222 28.7262 59.266 27.4701 59.5527C26.2134 59.8395 24.9744 60.1808 23.7531 60.5765C23.9697 63.0158 24.2217 65.2766 24.5091 67.3595C24.7959 69.4418 25.0919 71.209 25.3964 72.662C25.7009 74.1162 25.9791 75.1124 26.2311 75.6519C26.3394 75.8671 26.3939 76.0994 26.3939 76.3501C26.3939 76.7452 26.2495 77.114 25.9607 77.4552C25.6733 77.7965 25.2789 77.9671 24.7769 77.9671C24.1311 77.9671 23.6462 77.6613 23.3226 77.051C22.7484 75.8658 22.2188 73.9095 21.7345 71.1815C21.2495 68.4548 20.8637 65.35 20.5769 61.868C20.2179 62.0478 19.895 62.2276 19.6082 62.4061C19.3208 62.5859 19.0885 62.7657 18.91 62.9442C18.5858 63.2678 18.2091 63.4299 17.7786 63.4299C17.3481 63.4299 16.9708 63.2678 16.6472 62.9442C16.3231 62.622 16.1616 62.2447 16.1616 61.8129C16.1616 61.3824 16.3231 61.0057 16.6472 60.6841C17.0777 60.2536 17.6067 59.85 18.2354 59.474C18.8634 59.096 19.5544 58.7278 20.3091 58.3689C20.2002 56.5734 20.1103 54.7431 20.0387 52.8774C19.9666 51.0103 19.9311 49.1433 19.9311 47.2756C19.9311 43.9734 20.1103 40.8962 20.4692 38.0435C20.8276 35.1895 21.367 32.8657 22.0862 31.0715C22.6231 29.7065 23.341 28.4773 24.2387 27.3834C25.1365 26.2881 26.3926 25.7401 28.0082 25.7401C29.2276 25.7401 30.2323 26.126 31.0217 26.8977C31.8125 27.6695 32.4051 28.6302 32.7989 29.78C33.1939 30.9284 33.3921 32.0946 33.3921 33.2791C33.3921 35.6469 32.8986 38.096 31.9116 40.6265C30.9246 43.157 29.282 45.5713 26.9845 47.8689C26.6623 48.1931 26.2849 48.3545 25.8531 48.3545Z" fill="#AC040D"/>
<path d="M68.9278 48.3545C68.4973 48.3545 68.12 48.1931 67.7964 47.8689C67.4722 47.5453 67.3108 47.168 67.3108 46.7375C67.3108 46.307 67.4722 45.931 67.7964 45.6087C69.8072 43.598 71.2155 41.5255 72.0227 39.3901C72.8312 37.2534 73.2354 35.2164 73.2354 33.2791C73.2354 31.8078 72.9572 30.7217 72.4007 30.0215C71.8442 29.3219 71.4038 28.9715 71.0803 28.9715C70.5409 28.9715 70.0566 29.1867 69.626 29.6172C69.1955 30.0477 68.7106 30.9271 68.1718 32.2554C67.5976 33.6906 67.131 35.7545 66.7727 38.4477C66.4137 41.1397 66.2345 44.0823 66.2345 47.2756C66.2345 49.9689 66.6559 52.168 67.4998 53.8722C68.3431 55.5772 69.716 56.429 71.6184 56.429C72.696 56.429 73.7191 56.1967 74.6871 55.7307C75.6563 55.2635 76.7693 54.4018 78.0261 53.1451C78.3496 52.8235 78.7269 52.6621 79.1574 52.6621C79.5879 52.6621 79.964 52.8242 80.2862 53.1477C80.6097 53.47 80.7718 53.846 80.7718 54.2765C80.7718 54.707 80.6097 55.0843 80.2862 55.4079C78.851 56.8431 77.4512 57.9108 76.0862 58.6104C74.7225 59.3106 73.2335 59.6604 71.6184 59.6604C69.8964 59.6604 68.4691 59.2745 67.337 58.5027C66.2063 57.731 65.327 56.7269 64.6989 55.4892C64.0722 54.2502 63.6332 52.9036 63.3812 51.4494C63.1292 49.9951 63.0032 48.6039 63.0032 47.2756C63.0032 43.9734 63.1823 40.8962 63.5413 38.0435C63.9016 35.1895 64.4404 32.8657 65.1583 31.0715C65.6971 29.7065 66.4144 28.4773 67.3108 27.3834C68.2085 26.2881 69.4646 25.7401 71.0803 25.7401C72.2996 25.7401 73.3043 26.126 74.0938 26.8977C74.8846 27.6695 75.4772 28.6302 75.8709 29.78C76.266 30.9284 76.4642 32.0946 76.4642 33.2791C76.4642 35.6469 75.9707 38.096 74.9837 40.6265C73.9967 43.157 72.3541 45.5713 70.0566 47.8689C69.7343 48.1931 69.3583 48.3545 68.9278 48.3545Z" fill="#AC040D"/>
<path d="M118.998 59.6603C117.276 59.6603 115.768 59.2574 114.476 58.4502C113.184 57.6417 112.179 56.5379 111.459 55.1374C110.741 53.7376 110.383 52.1941 110.383 50.5069C110.383 49.0002 110.724 47.5919 111.407 46.2807C112.089 44.9701 113.04 43.9116 114.26 43.1044C115.482 42.2959 116.881 41.8917 118.46 41.8917C119.968 41.8917 121.243 42.4127 122.282 43.4535C123.323 44.495 123.844 45.7688 123.844 47.2755C123.844 48.6038 123.503 49.8605 122.82 51.045C122.139 52.2302 121.26 53.254 120.182 54.1163C119.106 54.9773 117.958 55.6047 116.738 55.9984C117.419 56.2859 118.172 56.4289 118.998 56.4289C120.004 56.4289 120.902 56.3489 121.692 56.1874C122.48 56.0266 123.504 55.623 124.76 54.9773C124.976 54.869 125.209 54.8145 125.461 54.8145C125.855 54.8145 126.222 54.9583 126.564 55.245C126.905 55.5325 127.076 55.9269 127.076 56.4289C127.076 57.0766 126.77 57.5616 126.159 57.8832C124.724 58.5657 123.459 59.0329 122.364 59.2849C121.27 59.5356 120.148 59.6603 118.998 59.6603ZM120.615 47.2755C120.615 46.6298 120.417 46.11 120.022 45.7163C119.626 45.3212 119.106 45.123 118.46 45.123C117.097 45.123 115.948 45.6441 115.014 46.6849C114.08 47.7264 113.615 49.0002 113.615 50.5069C113.615 51.5484 113.776 52.4461 114.1 53.2002C115.104 53.2002 116.1 52.895 117.087 52.284C118.074 51.6737 118.909 50.9105 119.592 49.995C120.274 49.0802 120.615 48.1733 120.615 47.2755Z" fill="#AC040D"/>
<path d="M180.97 54.8145C181.401 54.8145 181.768 54.9852 182.073 55.3264C182.379 55.6677 182.532 56.0352 182.532 56.4289C182.532 56.7879 182.406 57.1291 182.154 57.4527C182.119 57.4894 181.921 57.6961 181.561 58.0722C181.202 58.4489 180.7 58.8072 180.054 59.1484C179.408 59.4897 178.619 59.6603 177.686 59.6603C176.573 59.6603 175.639 59.365 174.885 58.773C174.131 58.1798 173.539 57.4356 173.108 56.5392C172.678 55.6414 172.337 54.7798 172.087 53.9535C171.62 54.8867 171.027 55.793 170.31 56.673C169.592 57.5518 168.739 58.269 167.751 58.8255C166.764 59.382 165.588 59.6603 164.225 59.6603C162.645 59.6603 161.289 59.2928 160.159 58.5578C159.028 57.8215 158.167 56.843 157.574 55.623C156.982 54.4018 156.686 53.0551 156.686 51.5832C156.686 49.8612 156.785 48.5611 156.983 47.6824C157.18 46.8024 157.298 46.3082 157.335 46.1993C157.621 45.482 158.124 45.123 158.841 45.123C159.343 45.123 159.738 45.2937 160.025 45.6349C160.312 45.9762 160.456 46.3437 160.456 46.7374C160.456 47.0249 160.411 47.3215 160.322 47.6273C160.233 47.9318 160.142 48.3715 160.052 48.945C159.962 49.5193 159.918 50.3986 159.918 51.5832C159.918 54.8139 161.354 56.4289 164.225 56.4289C165.338 56.4289 166.289 56.0706 167.079 55.3527C167.868 54.6354 168.522 53.7298 169.042 52.6358C169.563 51.5405 169.985 50.436 170.307 49.323C170.631 48.21 170.865 47.2414 171.008 46.4172C171.151 45.5916 171.224 45.0883 171.224 44.9078C171.295 44.5495 171.474 44.2266 171.762 43.9392C172.05 43.6524 172.41 43.5087 172.841 43.5087C173.271 43.5087 173.647 43.6708 173.969 43.9943C174.293 44.3165 174.455 44.6925 174.455 45.123C174.455 46.4145 174.518 47.7159 174.644 49.0264C174.77 50.3376 174.967 51.5582 175.235 52.6883C175.504 53.819 175.836 54.7253 176.232 55.4078C176.627 56.089 177.112 56.4289 177.686 56.4289C178.295 56.4289 178.743 56.295 179.03 56.0273C179.319 55.7582 179.597 55.4885 179.865 55.2188C180.134 54.9497 180.503 54.8145 180.97 54.8145Z" fill="#AC040D"/>
<path d="M215.912 49.4307C215.912 49.8264 215.768 50.1945 215.481 50.5358C215.194 50.8757 214.8 51.045 214.298 51.045C213.508 51.045 212.952 50.6421 212.628 49.8349C212.304 49.0264 212.142 48.1733 212.142 47.2755C212.142 45.984 212.636 44.9439 213.623 44.1544C214.611 43.3656 215.815 42.7914 217.232 42.4324C218.65 42.0721 220.004 41.8917 221.296 41.8917C223.055 41.8917 224.58 42.4665 225.871 43.6163C227.164 44.7647 227.973 46.4513 228.297 48.6773C228.727 51.6212 229.265 53.649 229.911 54.762C230.557 55.8737 231.275 56.4289 232.066 56.4289C232.568 56.4289 232.9 56.3843 233.061 56.295C233.222 56.2058 233.374 56.1165 233.518 56.0273C233.661 55.9367 233.895 55.8908 234.219 55.8908C234.649 55.8908 235.025 56.0529 235.347 56.3764C235.671 56.6986 235.833 57.076 235.833 57.5078C235.833 58.943 234.577 59.6603 232.066 59.6603C230.451 59.6603 229.176 59.1583 228.242 58.1535C227.308 57.1475 226.609 55.837 226.142 54.2213C225.676 52.6063 225.317 50.902 225.065 49.1078C224.85 47.5275 224.401 46.469 223.719 45.9315C223.038 45.3928 222.23 45.123 221.296 45.123C220.758 45.123 220.014 45.1952 219.062 45.3383C218.112 45.482 217.259 45.7156 216.505 46.0392C215.751 46.3614 215.374 46.7735 215.374 47.2755C215.374 47.456 215.463 47.7612 215.642 48.1917C215.821 48.6222 215.912 49.0356 215.912 49.4307Z" fill="#AC040D"/>
</g>
<mask id="mask1_1188_1039" style="mask-type:luminance" maskUnits="userSpaceOnUse" x="214" y="18" width="25" height="21">
<path d="M214.872 18.928H238.728V38.92H214.872V18.928Z" fill="white"/>
</mask>
<g mask="url(#mask1_1188_1039)">
<mask id="mask2_1188_1039" style="mask-type:luminance" maskUnits="userSpaceOnUse" x="211" y="14" width="32" height="30">
<path d="M221.298 14.3998L242.088 25.4872L232.305 43.832L211.515 32.744L221.298 14.3998Z" fill="white"/>
</mask>
<g mask="url(#mask2_1188_1039)">
<mask id="mask3_1188_1039" style="mask-type:luminance" maskUnits="userSpaceOnUse" x="211" y="14" width="32" height="30">
<path d="M221.298 14.3998L242.088 25.4872L232.305 43.832L211.515 32.744L221.298 14.3998Z" fill="white"/>
</mask>
<g mask="url(#mask3_1188_1039)">
<path d="M215.181 33.5702C215.41 34.1943 215.898 34.7436 216.504 35.0343C217.468 35.4937 218.537 35.3572 219.474 34.9044C219.941 34.6786 220.377 34.3846 220.776 34.0545C221.038 33.8393 221.232 33.5387 221.519 33.353C222.735 32.5668 221.64 34.9785 221.567 35.2889C221.209 36.774 222.261 38.4291 223.742 38.7992C225.222 39.1707 226.895 38.2591 227.446 36.837C227.75 36.0594 227.794 35.1118 228.436 34.5782C228.744 35.392 229.149 36.1834 229.739 36.8259C230.804 37.9809 232.536 38.5571 234.021 38.0478C235.508 37.5386 236.552 35.8468 236.138 34.3302C235.844 33.2454 234.941 32.4769 233.996 31.9408C233.434 31.6218 233.228 31.3646 234.042 31.3482C234.668 31.3357 235.297 31.2917 235.905 31.1388C236.805 30.9163 237.672 30.4353 238.174 29.6577C238.856 28.5998 238.706 27.1114 237.91 26.1356C237.115 25.1604 235.766 24.7115 234.521 24.8959C233.941 24.9819 233.45 25.3041 232.991 25.6519C232.626 25.9288 232.077 26.5424 231.62 26.5746C231.579 26.1618 231.73 25.7248 231.81 25.3225C231.927 24.7463 232.016 24.1603 232.034 23.5723C232.072 22.4488 231.846 21.2806 231.19 20.3658C230.535 19.4517 229.399 18.8374 228.285 18.9969C227.085 19.1701 226.142 20.1847 225.705 21.3161C225.486 21.8818 225.373 22.4783 225.308 23.0801C225.262 23.5086 225.287 23.9391 225.249 24.3689C225.209 24.8224 225.117 24.8808 224.707 24.678C224.125 24.3926 223.737 23.8059 223.243 23.4062C222.603 22.8871 221.956 22.37 221.239 21.9553C220.663 21.6212 220.026 21.3541 219.361 21.3607C218.025 21.3758 217.092 22.5518 216.729 23.7337C216.282 25.1899 216.698 26.612 218.183 27.2381C218.968 27.5695 220.379 27.3641 220.89 28.185C221.318 28.8688 220.121 28.8308 219.69 28.8925C218.529 29.0572 217.182 29.0454 216.187 29.7489C215.066 30.5456 214.724 32.3247 215.181 33.5702Z" fill="#AC040D"/>
</g>
</g>
</g>
<mask id="mask4_1188_1039" style="mask-type:luminance" maskUnits="userSpaceOnUse" x="214" y="18" width="25" height="22">
<path d="M214.704 18.592H238.896V39.256H214.704V18.592Z" fill="white"/>
</mask>
<g mask="url(#mask4_1188_1039)">
<mask id="mask5_1188_1039" style="mask-type:luminance" maskUnits="userSpaceOnUse" x="211" y="14" width="32" height="30">
<path d="M221.298 14.3998L242.088 25.4872L232.305 43.832L211.515 32.744L221.298 14.3998Z" fill="white"/>
</mask>
<g mask="url(#mask5_1188_1039)">
<mask id="mask6_1188_1039" style="mask-type:luminance" maskUnits="userSpaceOnUse" x="211" y="14" width="32" height="30">
<path d="M221.298 14.3998L242.088 25.4872L232.305 43.832L211.515 32.744L221.298 14.3998Z" fill="white"/>
</mask>
<g mask="url(#mask6_1188_1039)">
<path d="M216.301 35.1905C215.697 34.8689 215.201 34.2987 214.961 33.6496C214.72 32.9914 214.686 32.1849 214.867 31.4354C215.062 30.6302 215.484 29.9661 216.058 29.5599C216.896 28.9666 217.929 28.857 218.927 28.7507C219.182 28.7232 219.425 28.6976 219.661 28.6648C219.737 28.6536 219.826 28.6464 219.928 28.6385C220.111 28.6234 220.319 28.6064 220.494 28.5657C220.715 28.5145 220.75 28.4541 220.75 28.4541C220.753 28.4475 220.753 28.4036 220.696 28.3104C220.421 27.8694 219.772 27.7769 219.145 27.6883C218.762 27.6338 218.399 27.5819 218.095 27.4559C217.331 27.1331 216.783 26.5897 216.516 25.8823C216.267 25.2286 216.264 24.4621 216.51 23.6687C216.715 23.0026 217.074 22.3917 217.518 21.9467C218.047 21.4211 218.683 21.1382 219.361 21.131C219.973 21.1244 220.609 21.3246 221.358 21.7564C222.065 22.1666 222.697 22.6647 223.392 23.229C223.586 23.3872 223.762 23.5683 223.933 23.7442C224.216 24.0336 224.483 24.3099 224.812 24.472C224.899 24.5159 224.957 24.5383 224.989 24.5474C224.998 24.5114 225.008 24.451 225.018 24.3499C225.034 24.1563 225.039 23.9627 225.044 23.758C225.05 23.5289 225.055 23.294 225.081 23.0571C225.155 22.3543 225.29 21.7577 225.492 21.2354C225.733 20.6159 226.1 20.0607 226.553 19.6308C227.055 19.1544 227.645 18.8571 228.257 18.7692C228.835 18.6871 229.443 18.7902 230.016 19.0717C230.557 19.3381 231.029 19.7371 231.385 20.2319C232.175 21.3331 232.302 22.662 232.272 23.5821C232.253 24.1235 232.181 24.6905 232.044 25.371C232.022 25.4734 231.999 25.5784 231.974 25.6801C231.929 25.8737 231.881 26.0699 231.862 26.2589C232.084 26.1402 232.332 25.9203 232.529 25.7464C232.646 25.6427 232.756 25.5456 232.86 25.4675C233.336 25.1072 233.864 24.7614 234.496 24.6669C235.863 24.4628 237.278 24.9825 238.098 25.9879C238.979 27.0688 239.097 28.6654 238.376 29.7817C237.888 30.537 237.032 31.0981 235.966 31.3619C235.281 31.5313 234.583 31.566 234.051 31.5765C233.979 31.5772 233.922 31.5818 233.874 31.5864C233.929 31.6244 234.01 31.675 234.115 31.7367C235.344 32.4329 236.099 33.2834 236.366 34.2659C236.579 35.0488 236.447 35.9058 235.995 36.6802C235.562 37.4231 234.872 37.9993 234.1 38.2644C233.339 38.5249 232.496 38.5302 231.659 38.2814C230.869 38.0452 230.126 37.5839 229.573 36.9801C229.099 36.4656 228.7 35.8159 228.36 35.0015C228.132 35.3165 228.02 35.7313 227.904 36.1637C227.836 36.4138 227.765 36.6736 227.671 36.9178C227.381 37.6613 226.809 38.2926 226.059 38.6916C225.303 39.0965 224.46 39.212 223.692 39.021C222.925 38.8268 222.227 38.3044 221.775 37.5806C221.32 36.8521 221.163 35.9938 221.347 35.2299C221.363 35.1643 221.4 35.0639 221.47 34.8775C221.56 34.6307 221.689 34.2928 221.772 33.9824C221.862 33.6562 221.868 33.5013 221.861 33.4324C221.822 33.4442 221.755 33.4738 221.65 33.5407C221.509 33.6319 221.39 33.7625 221.263 33.899C221.159 34.0106 221.054 34.1261 220.93 34.2265C220.474 34.5999 220.031 34.888 219.58 35.1059C218.475 35.6381 217.347 35.6834 216.408 35.2345C216.368 35.2266 216.335 35.2089 216.301 35.1905ZM215.398 33.4895C215.61 34.0664 216.06 34.5625 216.603 34.8224C217.415 35.2089 218.397 35.1629 219.374 34.6931C219.792 34.4929 220.203 34.2239 220.63 33.8728C220.728 33.7914 220.822 33.6936 220.915 33.5886C221.058 33.435 221.204 33.2782 221.392 33.1548C221.514 33.0754 221.889 32.8333 222.154 33.0459C222.472 33.2999 222.317 33.918 221.898 35.0402C221.85 35.1675 221.803 35.2975 221.794 35.3395C221.471 36.6874 222.427 38.2257 223.801 38.5709C225.146 38.9095 226.718 38.0747 227.234 36.7504C227.319 36.5286 227.385 36.293 227.452 36.043C227.616 35.4399 227.784 34.8171 228.29 34.3964L228.541 34.1864L228.656 34.4909C229.004 35.4104 229.416 36.1217 229.914 36.6625C230.961 37.7998 232.62 38.2775 233.949 37.8208C235.364 37.3371 236.283 35.7313 235.918 34.3846C235.685 33.5263 235 32.7703 233.885 32.1376C233.474 31.9053 233.215 31.696 233.282 31.4315C233.349 31.1618 233.687 31.1178 234.04 31.1099C234.548 31.0994 235.211 31.0686 235.853 30.9091C236.805 30.6742 237.561 30.1827 237.985 29.5271C238.599 28.5742 238.495 27.2092 237.736 26.278C237.017 25.3947 235.771 24.9432 234.562 25.1223C234.061 25.1965 233.631 25.4609 233.137 25.8337C233.049 25.9013 232.944 25.9925 232.834 26.0896C232.471 26.4086 232.059 26.7702 231.644 26.8023L231.419 26.8194L231.396 26.5969C231.36 26.2445 231.442 25.9013 231.522 25.5673C231.546 25.4655 231.57 25.3691 231.589 25.2726C231.722 24.6177 231.792 24.0736 231.808 23.5611C231.837 22.7139 231.722 21.4926 231.008 20.4977C230.363 19.598 229.286 19.0855 228.326 19.2233C227.321 19.3723 226.381 20.2247 225.925 21.4007C225.737 21.887 225.611 22.4448 225.541 23.1037C225.518 23.3203 225.512 23.5355 225.508 23.7652C225.503 23.9673 225.498 24.1773 225.482 24.3873C225.461 24.6216 225.425 24.8618 225.23 24.9707C225.036 25.0797 224.817 24.9878 224.608 24.8841C224.206 24.6866 223.897 24.3689 223.599 24.0631C223.431 23.8879 223.273 23.7245 223.098 23.5854C222.418 23.0341 221.801 22.5472 221.123 22.1554C220.449 21.7663 219.89 21.5878 219.367 21.5924C218.082 21.6061 217.264 22.7907 216.954 23.8019C216.508 25.2582 217.015 26.4926 218.279 27.0241C218.526 27.1291 218.861 27.1764 219.214 27.2256C219.911 27.3247 220.703 27.4363 221.095 28.0623C221.268 28.3373 221.232 28.5388 221.17 28.6589C220.991 29.0145 220.426 29.0618 219.97 29.0972C219.878 29.1058 219.791 29.111 219.728 29.1209C219.483 29.1569 219.226 29.1832 218.977 29.2088C218.038 29.3079 217.068 29.4129 216.328 29.9353C215.268 30.6886 214.991 32.3804 215.398 33.4895Z" fill="#AC040D"/>
</g>
</g>
</g>
<mask id="mask7_1188_1039" style="mask-type:luminance" maskUnits="userSpaceOnUse" x="224" y="27" width="5" height="6">
<path d="M224.112 27.328H228.648V32.2H224.112V27.328Z" fill="white"/>
</mask>
<g mask="url(#mask7_1188_1039)">
<mask id="mask8_1188_1039" style="mask-type:luminance" maskUnits="userSpaceOnUse" x="211" y="14" width="32" height="30">
<path d="M221.298 14.3999L242.088 25.4872L232.305 43.8321L211.515 32.7441L221.298 14.3999Z" fill="white"/>
</mask>
<g mask="url(#mask8_1188_1039)">
<mask id="mask9_1188_1039" style="mask-type:luminance" maskUnits="userSpaceOnUse" x="211" y="14" width="32" height="30">
<path d="M221.298 14.3999L242.088 25.4872L232.305 43.8321L211.515 32.7441L221.298 14.3999Z" fill="white"/>
</mask>
<g mask="url(#mask9_1188_1039)">
<path d="M225.211 28.0223C224.75 28.4207 224.388 28.945 224.245 29.535C224.103 30.125 224.197 30.7832 224.553 31.2767C224.838 31.6685 225.28 31.9395 225.759 32.0182C226.743 32.1744 228.129 31.7347 228.513 30.8147C228.827 30.0679 228.568 28.3636 227.895 27.748C227.153 27.0662 225.874 27.4481 225.211 28.0223Z" fill="#FDE1A2"/>
</g>
</g>
</g>
</svg>
