<svg width="28" height="28" viewBox="0 0 28 28" fill="none" xmlns="http://www.w3.org/2000/svg">
<g clip-path="url(#clip0_1188_1105)">
<path d="M11.0703 22.13C10.8439 22.1301 10.6176 22.1232 10.3916 22.1095C10.1655 22.0957 9.9401 22.075 9.71535 22.0473C9.4906 22.0198 9.2669 21.9853 9.04427 21.9439C8.82163 21.9026 8.60043 21.8544 8.38074 21.7995C8.16105 21.7445 7.94325 21.6829 7.72733 21.6146C7.51142 21.5463 7.29785 21.4714 7.08654 21.39C6.87523 21.3086 6.66657 21.2208 6.4607 21.1265C6.25475 21.0323 6.05191 20.9318 5.85215 20.8252C5.65248 20.7185 5.45612 20.6058 5.26332 20.487C5.07051 20.3683 4.88148 20.2437 4.69631 20.1134C4.51113 19.983 4.33011 19.8472 4.15324 19.7057C3.97644 19.5643 3.8041 19.4175 3.6363 19.2654C3.46841 19.1134 3.30544 18.9564 3.14722 18.7943C2.98908 18.6324 2.836 18.4656 2.68806 18.2942C2.54011 18.1227 2.39753 17.9469 2.26038 17.7667C2.12324 17.5865 1.99175 17.4023 1.86586 17.214C1.74004 17.0257 1.62012 16.8337 1.506 16.6382C1.39197 16.4426 1.28405 16.2436 1.18217 16.0413C1.08029 15.8391 0.98476 15.6339 0.89557 15.4257C0.806304 15.2176 0.723533 15.007 0.647182 14.7937C0.570905 14.5805 0.5012 14.3652 0.438064 14.1477C0.375004 13.9302 0.318666 13.711 0.269049 13.4901C0.219356 13.2691 0.176611 13.0468 0.140588 12.8232C0.10464 12.5997 0.0754888 12.3752 0.0532857 12.1499C0.0310826 11.9244 0.0158274 11.6986 0.00752009 11.4724C-0.000862722 11.246 -0.00222208 11.0197 0.00336645 10.7933C0.00887948 10.567 0.0214159 10.3409 0.0408248 10.1153C0.0603092 9.88969 0.0865904 9.66486 0.11982 9.44086C0.153124 9.21687 0.19315 8.99408 0.240049 8.77258C0.287023 8.551 0.340643 8.33116 0.401059 8.11291C0.461476 7.89465 0.528538 7.67844 0.602247 7.46433C0.675955 7.25023 0.756158 7.03855 0.84278 6.82935C0.929478 6.62016 1.02252 6.41376 1.12191 6.21031C1.22122 6.00678 1.32672 5.80658 1.43841 5.60954C1.55003 5.41251 1.66762 5.2191 1.79117 5.02932C1.91465 4.83953 2.04386 4.65368 2.17882 4.47182C2.31378 4.28997 2.45417 4.11242 2.6 3.93917C2.74583 3.76593 2.89687 3.59729 3.05305 3.43333C3.20923 3.26938 3.37031 3.11033 3.53623 2.95627C3.70215 2.80221 3.87268 2.65336 4.04781 2.50971C4.22287 2.36607 4.40223 2.22802 4.58582 2.09541C4.76934 1.96279 4.95685 1.83592 5.14815 1.71486C5.33952 1.59372 5.53444 1.47863 5.73283 1.3695C5.9313 1.26037 6.13286 1.15744 6.3376 1.0607C6.54234 0.963954 6.74987 0.873556 6.96019 0.789576C7.17044 0.705597 7.38311 0.628113 7.59819 0.557123C7.81328 0.486209 8.03025 0.421866 8.24926 0.364243C8.46827 0.306621 8.68879 0.255795 8.91097 0.211691C9.13308 0.167587 9.35632 0.130355 9.58077 0.0999958C9.80514 0.0696364 10.0303 0.0461494 10.2562 0.0296104C10.482 0.0130713 10.7081 0.00348015 10.9346 0.000761401C11.161 -0.00188183 11.3873 0.00234734 11.6135 0.0135999C11.8397 0.0248526 12.0653 0.0429776 12.2903 0.0680505C12.5154 0.0931234 12.7394 0.125069 12.9626 0.163962C13.1857 0.20278 13.4073 0.248394 13.6276 0.300881C13.8479 0.353293 14.0664 0.412425 14.2831 0.47828C14.4997 0.544209 14.7142 0.616634 14.9264 0.695629C15.1386 0.774699 15.3482 0.860113 15.5552 0.952022C15.7621 1.04393 15.9661 1.14211 16.1671 1.24648C16.368 1.35092 16.5655 1.46141 16.7597 1.57794C16.9539 1.69447 17.1443 1.81689 17.3309 1.94512C17.5176 2.07336 17.7001 2.20718 17.8785 2.34666C18.057 2.48608 18.2309 2.63085 18.4005 2.78099C18.57 2.93112 18.7348 3.08632 18.8948 3.24657C18.9909 3.34256 19.0852 3.44021 19.1777 3.53967C19.2702 3.63913 19.3608 3.74025 19.4496 3.84303C19.5383 3.94582 19.6252 4.05019 19.7101 4.15622C19.795 4.26218 19.878 4.36972 19.9589 4.47877C20.0399 4.58782 20.1188 4.69831 20.1957 4.81023C20.2726 4.92223 20.3474 5.03551 20.4201 5.15022C20.4928 5.26494 20.5634 5.38094 20.6318 5.4983C20.7002 5.61558 20.7665 5.73408 20.8306 5.85385C20.8946 5.97363 20.9565 6.09446 21.0161 6.2165C21.0757 6.33854 21.1331 6.46164 21.1882 6.5858C21.2432 6.70988 21.296 6.83502 21.3465 6.96114C21.397 7.08718 21.4451 7.21413 21.4909 7.34199C21.5367 7.46985 21.5801 7.59853 21.6212 7.72798C21.6622 7.85742 21.7009 7.98762 21.7371 8.11849C21.7734 8.24937 21.8073 8.38085 21.8387 8.51302C21.8701 8.64518 21.899 8.77779 21.9256 8.91101C21.9521 9.04423 21.9762 9.17783 21.9977 9.31195C22.0194 9.446 22.0385 9.58043 22.0551 9.71523C22.0718 9.85004 22.086 9.98507 22.0977 10.1204C22.1093 10.2557 22.1185 10.3911 22.1252 10.5268C22.1319 10.6625 22.136 10.7982 22.1378 10.934C22.1394 11.0698 22.1386 11.2056 22.1353 11.3413C22.132 11.4771 22.1261 11.6128 22.1178 11.7483C22.1095 11.8839 22.0987 12.0192 22.0854 12.1544C22.0721 12.2896 22.0563 12.4245 22.038 12.559C22.0197 12.6936 21.999 12.8278 21.9758 12.9616C21.9526 13.0954 21.9269 13.2288 21.8987 13.3616C21.8706 13.4945 21.8401 13.6268 21.8071 13.7585C21.7741 13.8903 21.7386 14.0214 21.7008 14.1518C21.663 14.2822 21.6228 14.4119 21.5801 14.5409C21.5375 14.6699 21.4926 14.7979 21.4452 14.9253C21.3979 15.0526 21.3483 15.1789 21.2962 15.3044C21.2443 15.4299 21.19 15.5544 21.1334 15.6778C21.0768 15.8013 21.018 15.9236 20.9569 16.0449C20.8958 16.1663 20.8325 16.2864 20.7671 16.4054C20.7015 16.5243 20.6338 16.6421 20.564 16.7585C20.4941 16.875 20.4222 16.9902 20.3481 17.104C20.274 17.2178 20.1979 17.3302 20.1196 17.4412C20.0414 17.5523 19.9611 17.6618 19.8789 17.7698C19.7966 17.8779 19.7123 17.9845 19.6262 18.0894C19.54 18.1943 19.4519 18.2976 19.3619 18.3994C19.2719 18.5011 19.1801 18.6012 19.0864 18.6995C18.9927 18.7978 18.8972 18.8943 18.8 18.9892C18.7028 19.084 18.6038 19.1769 18.5032 19.2682C18.4025 19.3593 18.3002 19.4486 18.1962 19.536C18.0923 19.6233 17.9867 19.7088 17.8796 19.7924C17.7725 19.8759 17.6639 19.9574 17.5538 20.0369C17.4437 20.1163 17.3321 20.1938 17.2192 20.2692C17.1063 20.3446 16.9919 20.4179 16.8763 20.4891C16.7606 20.5603 16.6437 20.6294 16.5254 20.6962C16.4072 20.7631 16.2878 20.8277 16.1673 20.8902C16.0467 20.9527 15.925 21.0129 15.8022 21.0709C15.6794 21.1289 15.5555 21.1847 15.4307 21.2381C15.3059 21.2915 15.18 21.3426 15.0533 21.3914C14.9266 21.4402 14.799 21.4867 14.6705 21.5308C14.542 21.5749 14.4128 21.6166 14.2828 21.6559C14.1529 21.6953 14.0221 21.7322 13.8908 21.7667C13.7595 21.8013 13.6276 21.8334 13.495 21.863C13.3625 21.8927 13.2294 21.9199 13.0959 21.9446C12.9624 21.9694 12.8284 21.9917 12.694 22.0115C12.5597 22.0313 12.425 22.0487 12.29 22.0636C12.155 22.0784 12.0198 22.0908 11.8844 22.1006C11.7489 22.1105 11.6133 22.1179 11.4775 22.1229C11.3418 22.1277 11.2061 22.1301 11.0703 22.13ZM11.0703 2.43797C10.9053 2.43759 10.7405 2.44197 10.5758 2.45103C10.4111 2.4601 10.2469 2.47384 10.0829 2.49234C9.91903 2.51085 9.75583 2.53403 9.59323 2.5619C9.43063 2.58977 9.26902 2.62224 9.10831 2.65932C8.9476 2.69648 8.7881 2.73816 8.62973 2.78438C8.47144 2.83068 8.31458 2.88143 8.15916 2.93663C8.00374 2.99191 7.85006 3.05158 7.69803 3.11562C7.54601 3.17966 7.39603 3.24801 7.24793 3.32066C7.09983 3.39338 6.954 3.47019 6.81029 3.55122C6.66665 3.63226 6.52542 3.71729 6.38661 3.80641C6.24781 3.89552 6.11164 3.98856 5.9782 4.08546C5.84475 4.18235 5.71418 4.28302 5.58647 4.38746C5.45877 4.49183 5.33416 4.59983 5.21264 4.71137C5.09113 4.82292 4.97294 4.93786 4.858 5.05613C4.74313 5.17447 4.63166 5.29598 4.52374 5.42066C4.41575 5.54542 4.31145 5.67306 4.21086 5.80378C4.11019 5.93443 4.01337 6.06795 3.92041 6.20412C3.82744 6.34036 3.7384 6.47916 3.65336 6.62046C3.56833 6.76184 3.48744 6.90548 3.41064 7.05146C3.33384 7.19744 3.26126 7.34546 3.19299 7.4956C3.12464 7.64573 3.06068 7.79768 3.00109 7.95152C2.9415 8.10528 2.88637 8.2607 2.8357 8.41763C2.78495 8.57457 2.73881 8.73286 2.69719 8.89251C2.65558 9.05208 2.61858 9.21272 2.5861 9.37448C2.5537 9.53617 2.52599 9.69869 2.50288 9.86204C2.47977 10.0253 2.46134 10.1892 2.44767 10.3535C2.43393 10.5179 2.42494 10.6826 2.42071 10.8474C2.41641 11.0124 2.41686 11.1772 2.42207 11.3421C2.42721 11.507 2.4371 11.6715 2.45175 11.8358C2.46633 12.0001 2.48566 12.1638 2.5096 12.327C2.53362 12.4902 2.56231 12.6526 2.59562 12.8142C2.62892 12.9757 2.66676 13.1361 2.70928 13.2955C2.7518 13.4549 2.79885 13.6129 2.85035 13.7696C2.90193 13.9263 2.95797 14.0813 3.01838 14.2348C3.0788 14.3882 3.1436 14.5399 3.21278 14.6896C3.28188 14.8394 3.35528 14.987 3.43284 15.1326C3.51048 15.2781 3.59212 15.4214 3.67798 15.5622C3.76378 15.7031 3.85349 15.8413 3.94729 15.977C4.04101 16.1128 4.13851 16.2457 4.23986 16.3759C4.34121 16.506 4.44626 16.6331 4.55486 16.7572C4.66353 16.8813 4.7756 17.0022 4.89115 17.1199C5.00677 17.2376 5.12557 17.3519 5.24768 17.4628C5.3698 17.5736 5.49501 17.6809 5.62332 17.7846C5.75156 17.8883 5.88266 17.9882 6.01671 18.0844C6.15069 18.1806 6.2873 18.2729 6.42656 18.3612C6.5659 18.4496 6.70758 18.5339 6.85167 18.6141C6.99584 18.6944 7.14212 18.7703 7.2906 18.8422C7.43907 18.914 7.58943 18.9816 7.74184 19.0448C7.89416 19.1081 8.04815 19.1668 8.20387 19.2212C8.3596 19.2756 8.51675 19.3255 8.67535 19.3709C8.83387 19.4163 8.99367 19.4571 9.15453 19.4933C9.31546 19.5295 9.4773 19.5612 9.63998 19.5881C9.80272 19.615 9.96607 19.6373 10.1301 19.6549C10.2941 19.6725 10.4585 19.6854 10.6232 19.6936C10.788 19.7017 10.9528 19.7052 11.1177 19.7039C11.2826 19.7026 11.4474 19.6967 11.6121 19.6859C11.7766 19.6752 11.9408 19.6597 12.1044 19.6397C12.2682 19.6195 12.4312 19.5947 12.5934 19.5653C12.7557 19.5358 12.9171 19.5017 13.0774 19.4629C13.2377 19.4243 13.3968 19.381 13.5547 19.3331C13.7125 19.2853 13.8689 19.233 14.0237 19.1762C14.1786 19.1194 14.3317 19.0582 14.4831 18.9926C14.6344 18.927 14.7837 18.8572 14.931 18.7831C15.0784 18.7089 15.2235 18.6306 15.3663 18.5482C15.5092 18.4658 15.6496 18.3793 15.7875 18.2888C15.9254 18.1983 16.0606 18.1039 16.1931 18.0057C16.3256 17.9074 16.4551 17.8055 16.5818 17.6998C16.7084 17.5941 16.832 17.4849 16.9524 17.3721C17.0727 17.2594 17.1898 17.1433 17.3035 17.0238C17.4173 16.9044 17.5274 16.7818 17.6342 16.656C17.7409 16.5302 17.8439 16.4015 17.9432 16.2698C18.0426 16.1381 18.138 16.0037 18.2296 15.8666C18.3212 15.7294 18.4088 15.5897 18.4925 15.4476C18.5761 15.3054 18.6556 15.1609 18.7309 15.0142C18.8062 14.8674 18.8773 14.7186 18.9441 14.5679C19.011 14.4171 19.0734 14.2645 19.1314 14.1101C19.1895 13.9557 19.2431 13.7998 19.2922 13.6423C19.3414 13.4849 19.3859 13.3261 19.426 13.1662C19.466 13.0061 19.5014 12.8451 19.5322 12.6831C19.563 12.521 19.5892 12.3582 19.6106 12.1947C19.6321 12.0312 19.6488 11.8671 19.6609 11.7026C19.673 11.5382 19.6803 11.3734 19.683 11.2085C19.6855 11.0436 19.6835 10.8787 19.6766 10.7139C19.6698 10.5491 19.6583 10.3846 19.642 10.2205C19.6258 10.0564 19.6049 9.89278 19.5792 9.72988C19.5536 9.56691 19.5233 9.40484 19.4884 9.24368C19.4535 9.08244 19.414 8.92241 19.3699 8.76344C19.3258 8.60447 19.2772 8.44694 19.2241 8.29083C19.171 8.13466 19.1135 7.98014 19.0515 7.82729C18.9895 7.67443 18.9231 7.52347 18.8525 7.37439C18.7819 7.22539 18.7071 7.07842 18.628 6.93365C18.549 6.78895 18.4659 6.64652 18.3786 6.5065C18.2914 6.36656 18.2003 6.22912 18.1053 6.09439C18.0102 5.95958 17.9112 5.82765 17.8086 5.69851C17.706 5.56944 17.5997 5.44332 17.4898 5.3203C17.38 5.19735 17.2667 5.07757 17.1499 4.96104C17.0505 4.86143 16.9486 4.76439 16.8443 4.66984C16.7401 4.57528 16.6336 4.48338 16.5248 4.39403C16.416 4.30469 16.3051 4.21815 16.1922 4.13424C16.0791 4.05034 15.9641 3.96931 15.8471 3.89107C15.7301 3.81275 15.6113 3.73746 15.4907 3.66503C15.37 3.59261 15.2475 3.5232 15.1235 3.45675C14.9994 3.39036 14.8737 3.327 14.7465 3.26674C14.6194 3.20655 14.4908 3.14945 14.3608 3.09545C14.2308 3.04153 14.0996 2.99078 13.9671 2.94328C13.8346 2.89578 13.701 2.85152 13.5664 2.81059C13.4317 2.76958 13.2962 2.73197 13.1596 2.69769C13.0232 2.66332 12.8859 2.63244 12.7479 2.60487C12.6098 2.57723 12.4713 2.55306 12.3321 2.5323C12.1929 2.51153 12.0532 2.49416 11.9132 2.48026C11.7731 2.46629 11.6328 2.45579 11.4923 2.44877C11.3517 2.44167 11.211 2.43812 11.0703 2.43797Z" fill="#AC040D"/>
<path d="M26.7559 27.9725C26.6762 27.9722 26.5973 27.9641 26.5191 27.9482C26.441 27.9324 26.3652 27.9091 26.2916 27.8783C26.2181 27.8476 26.1483 27.8099 26.0821 27.7654C26.016 27.7209 25.9548 27.6704 25.8986 27.6138L17.1743 18.8956C17.1461 18.8675 17.1194 18.8379 17.0942 18.8071C17.0689 18.7764 17.0452 18.7444 17.023 18.7113C17.0009 18.6781 16.9804 18.644 16.9616 18.6089C16.9428 18.5737 16.9258 18.5377 16.9106 18.5009C16.8953 18.4641 16.882 18.4266 16.8704 18.3885C16.8588 18.3504 16.8491 18.3118 16.8413 18.2727C16.8336 18.2336 16.8277 18.1943 16.8239 18.1546C16.82 18.115 16.818 18.0752 16.818 18.0354C16.818 17.9955 16.82 17.9558 16.8239 17.9161C16.8277 17.8764 16.8336 17.837 16.8413 17.798C16.8491 17.7589 16.8588 17.7203 16.8704 17.6822C16.882 17.644 16.8953 17.6066 16.9106 17.5698C16.9258 17.5329 16.9428 17.497 16.9616 17.4619C16.9804 17.4267 17.0009 17.3925 17.023 17.3595C17.0452 17.3263 17.0689 17.2944 17.0942 17.2635C17.1194 17.2327 17.1461 17.2032 17.1743 17.175C17.2025 17.1469 17.232 17.1201 17.2628 17.0949C17.2936 17.0696 17.3256 17.0459 17.3587 17.0238C17.3918 17.0016 17.4259 16.9812 17.4611 16.9624C17.4962 16.9436 17.5322 16.9266 17.569 16.9113C17.6058 16.8961 17.6433 16.8827 17.6814 16.8711C17.7196 16.8596 17.7582 16.8498 17.7973 16.8421C17.8363 16.8344 17.8757 16.8285 17.9154 16.8246C17.955 16.8207 17.9948 16.8187 18.0346 16.8187C18.0744 16.8187 18.1142 16.8207 18.1539 16.8246C18.1935 16.8285 18.2329 16.8344 18.2719 16.8421C18.311 16.8498 18.3496 16.8596 18.3878 16.8711C18.4259 16.8827 18.4634 16.8961 18.5001 16.9113C18.537 16.9266 18.5729 16.9436 18.6081 16.9624C18.6433 16.9812 18.6774 17.0016 18.7105 17.0238C18.7436 17.0459 18.7756 17.0696 18.8064 17.0949C18.8372 17.1201 18.8667 17.1469 18.8949 17.175L27.6131 25.8994C27.6341 25.9205 27.6543 25.9423 27.6737 25.9649C27.6931 25.9876 27.7116 26.0108 27.7292 26.0348C27.7469 26.0587 27.7637 26.0832 27.7795 26.1085C27.7954 26.1336 27.8104 26.1594 27.8243 26.1857C27.8383 26.2119 27.8513 26.2387 27.8633 26.2659C27.8753 26.2932 27.8863 26.3208 27.8963 26.3489C27.9063 26.3769 27.9152 26.4053 27.9231 26.434C27.931 26.4627 27.9378 26.4916 27.9436 26.5208C27.9494 26.55 27.9541 26.5794 27.9577 26.6089C27.9613 26.6385 27.9638 26.6681 27.9653 26.6978C27.9668 26.7276 27.9671 26.7573 27.9663 26.7871C27.9655 26.8169 27.9637 26.8465 27.9608 26.8761C27.9579 26.9057 27.9539 26.9353 27.9488 26.9646C27.9437 26.9939 27.9375 27.023 27.9303 27.0519C27.9231 27.0807 27.9148 27.1093 27.9055 27.1376C27.8961 27.1658 27.8858 27.1937 27.8745 27.2213C27.8631 27.2488 27.8507 27.2758 27.8373 27.3024C27.8239 27.329 27.8097 27.3551 27.7943 27.3806C27.7791 27.4061 27.7629 27.4311 27.7458 27.4555C27.7287 27.4799 27.7107 27.5036 27.6919 27.5266C27.6731 27.5496 27.6533 27.5719 27.6329 27.5935C27.6124 27.6151 27.5911 27.636 27.5691 27.656C27.5471 27.676 27.5244 27.6952 27.5009 27.7136C27.4775 27.7319 27.4534 27.7494 27.4287 27.766C27.404 27.7826 27.3788 27.7982 27.3529 27.813C27.327 27.8278 27.3007 27.8415 27.2738 27.8544C27.2469 27.8671 27.2196 27.8789 27.1918 27.8897C27.1641 27.9005 27.136 27.9103 27.1076 27.919C27.0792 27.9278 27.0504 27.9355 27.0214 27.942C26.9924 27.9487 26.9632 27.9543 26.9337 27.9587C26.9043 27.9632 26.8747 27.9666 26.845 27.9689C26.8154 27.9712 26.7856 27.9724 26.7559 27.9725Z" fill="#AC040D"/>
</g>
<defs>
<clipPath id="clip0_1188_1105">
<rect width="27.9667" height="27.9725" fill="white"/>
</clipPath>
</defs>
</svg>
